<svg width="59" height="68" viewBox="0 0 59 68" fill="none" xmlns="http://www.w3.org/2000/svg">
<path d="M50.079 42.2122H8.92554V38.8593H50.079V42.2122Z" fill="#9C9C9B"/>
<path d="M59 55.2791H0V51.9262H59V55.2791Z" fill="#9C9C9B"/>
<path d="M11.9597 49.6133V41.1711H15.6148V49.6133H11.9597Z" fill="#9C9C9B"/>
<path d="M17.1975 49.6133V41.1711H20.8537V49.6133H17.1975Z" fill="#9C9C9B"/>
<path d="M22.4353 49.6133V41.1711H26.0915V49.6133H22.4353Z" fill="#9C9C9B"/>
<path d="M27.6731 49.6133V41.1711H31.3293V49.6133H27.6731Z" fill="#9C9C9B"/>
<path d="M32.9153 49.6133V41.1711H36.5704V49.6133H32.9153Z" fill="#9C9C9B"/>
<path d="M38.1509 49.6133V41.1711H41.8071V49.6133H38.1509Z" fill="#9C9C9B"/>
<path d="M43.3909 49.6133V41.1711H47.0459V49.6133H43.3909Z" fill="#9C9C9B"/>
<path d="M11.9597 68V55.2792H15.6148V68H11.9597Z" fill="#9C9C9B"/>
<path d="M17.1975 68V55.2792H20.8537V68H17.1975Z" fill="#9C9C9B"/>
<path d="M22.4353 68V55.2792H26.0915V68H22.4353Z" fill="#9C9C9B"/>
<path d="M27.6731 68V55.2792H31.3293V68H27.6731Z" fill="#9C9C9B"/>
<path d="M32.9153 68V55.2792H36.5704V68H32.9153Z" fill="#9C9C9B"/>
<path d="M38.1509 68V55.2792H41.8071V68H38.1509Z" fill="#9C9C9B"/>
<path d="M43.3909 68V55.2792H47.0459V68H43.3909Z" fill="#9C9C9B"/>
<path d="M48.2498 68V55.2792H51.9048V68H48.2498Z" fill="#9C9C9B"/>
<path d="M53.4897 68V55.2792H57.146V68H53.4897Z" fill="#9C9C9B"/>
<path d="M1.85669 68V55.2792H5.51176V68H1.85669Z" fill="#9C9C9B"/>
<path d="M7.09863 68V55.2792H10.7537V68H7.09863Z" fill="#9C9C9B"/>
<path d="M29.5019 14.2646C18.5743 14.2646 12.4411 28.0651 15.1291 37.0073H29.5019H43.8735C46.5615 28.0651 40.4283 14.2646 29.5019 14.2646Z" fill="#9C9C9B"/>
<path d="M29.5016 0.0018425L27.3154 13.3389H31.6867L29.5016 0.0018425Z" fill="#9C9C9B"/>
<path d="M29.5016 13.3389V0.0018425L27.3154 13.3389H29.5016Z" fill="#9C9C9B"/>
<path d="M31.3274 42.2122H32.9115V41.1712H36.5666V42.2122H38.1495V41.1712H41.8057V42.2122H43.3886V41.1712H47.0436V42.2122H50.076V38.8593H29.2678V41.1712H31.3274V42.2122Z" fill="#C8C7C5"/>
<path d="M32.9115 55.2791H58.9988V51.9262H29.2678V55.2791H31.3274H32.9115Z" fill="#C8C7C5"/>
<path d="M31.3274 42.212V41.1711H29.2678V49.6133H31.3274V42.212Z" fill="#C8C7C5"/>
<path d="M32.9153 41.1711V49.6133H36.5704V41.1711H32.9153Z" fill="#C8C7C5"/>
<path d="M38.1509 41.1711V49.6133H41.8071V41.1711H38.1509Z" fill="#C8C7C5"/>
<path d="M43.3909 41.1711V49.6133H47.0459V41.1711H43.3909Z" fill="#C8C7C5"/>
<path d="M31.3274 55.2792H29.2678V68H31.3274V55.2792Z" fill="#C8C7C5"/>
<path d="M32.9153 68H36.5704V55.2792H32.9153V68Z" fill="#C8C7C5"/>
<path d="M38.1509 68H41.8071V55.2792H38.1509V68Z" fill="#C8C7C5"/>
<path d="M43.3909 68H47.0459V55.2792H43.3909V68Z" fill="#C8C7C5"/>
<path d="M48.2498 68H51.9048V55.2792H48.2498V68Z" fill="#C8C7C5"/>
<path d="M53.4897 68H57.146V55.2792H53.4897V68Z" fill="#C8C7C5"/>
<path d="M43.8721 37.0073C46.5601 28.0651 40.4269 14.2646 29.5004 14.2646C29.4218 14.2646 29.3454 14.273 29.2678 14.2741V37.0073H29.5004H43.8721Z" fill="#C8C7C5"/>
<path d="M31.6892 13.3389L29.5042 0.0018425V13.3389H31.6892Z" fill="#C8C7C5"/>
<path d="M29.5004 0.0018425L29.2678 1.4162V13.3389H29.5004V0.0018425Z" fill="#9C9C9B"/>
<path d="M30.3005 14.988C30.3005 14.988 30.7522 15.0163 31.5254 15.1972C31.9017 15.3071 32.3773 15.4138 32.8882 15.6126C33.4151 15.7831 33.9796 16.0373 34.5863 16.3407C35.1645 16.6765 35.8271 17.0102 36.4349 17.4757C36.7428 17.7037 37.0701 17.9297 37.3872 18.1787C37.6803 18.4496 37.9802 18.7279 38.287 19.0093C38.6051 19.2824 38.8697 19.6056 39.1446 19.9278C39.4171 20.2521 39.7125 20.5691 39.9634 20.9174C40.1972 21.2742 40.4333 21.6351 40.6705 21.9981C40.9179 22.3558 41.1437 22.7251 41.3182 23.1164C41.682 23.8937 42.0983 24.6531 42.3298 25.4565C42.5966 26.2495 42.8863 27.0236 43.0083 27.804C43.1612 28.5782 43.3345 29.323 43.4006 30.0375C43.4531 30.7531 43.5021 31.4289 43.5478 32.0534C43.6219 32.6748 43.5842 33.2481 43.5489 33.7544C43.5204 34.2586 43.4964 34.699 43.4759 35.062C43.4314 35.7849 43.3904 36.196 43.3904 36.196C43.3904 36.196 43.3311 35.7818 43.2547 35.0631C43.1611 34.3454 43.1292 33.3161 42.908 32.1047C42.8065 31.5 42.6959 30.8451 42.5784 30.1516C42.4484 29.4622 42.1986 28.7581 42.031 28.0154C41.885 27.2642 41.5429 26.5424 41.2874 25.785C41.0559 25.0151 40.6454 24.3037 40.2907 23.5704C40.1322 23.1938 39.9246 22.8423 39.6954 22.5033C39.4787 22.1581 39.2609 21.8139 39.0454 21.474C38.5344 20.8442 38.0965 20.1726 37.5389 19.6223C37.2686 19.3409 37.0017 19.0648 36.7394 18.7938C36.4646 18.5354 36.176 18.3011 35.9046 18.0605C35.3709 17.5698 34.7722 17.2068 34.2476 16.8386C33.6899 16.5154 33.1893 16.1952 32.7103 15.964C32.2461 15.7057 31.8059 15.5456 31.4524 15.3876C30.7351 15.1073 30.3005 14.988 30.3005 14.988Z" fill="white"/>
</svg>
