<svg width="63" height="60" viewBox="0 0 63 60" fill="none" xmlns="http://www.w3.org/2000/svg">
<path d="M40.3187 23.5142V-0.000211716H0V23.5142H40.3187Z" fill="#96E0F4"/>
<path d="M17.4123 17.7761H5.35742V5.72015H17.4123V17.7761Z" fill="#F99C1D"/>
<path d="M11.3843 17.7761H5.35742V5.72015H11.3843V17.7761Z" fill="#FDC00E"/>
<path d="M11.3835 13.3191C13.0125 13.3191 14.3326 11.9994 14.3326 10.3714C14.3326 8.74249 13.0125 7.42236 11.3835 7.42236V13.3191Z" fill="#002541"/>
<path d="M11.3852 13.3191C9.75727 13.3191 8.43726 11.9994 8.43726 10.3714C8.43726 8.74249 9.75727 7.42236 11.3852 7.42236V13.3191Z" fill="#004592"/>
<path d="M11.3848 16.324V13.3546C9.73447 13.3546 8.39529 14.6801 8.36865 16.324H11.3848Z" fill="#004592"/>
<path d="M14.3997 16.324C14.3752 14.6801 13.0338 13.3546 11.3835 13.3546V16.324H14.3997Z" fill="#002541"/>
<path d="M35.6292 7.7356H24.27V6.61193H35.6292V7.7356Z" fill="#1490BD"/>
<path d="M35.6292 10.6824H24.27V9.55956H35.6292V10.6824Z" fill="#1490BD"/>
<path d="M35.6292 13.6284H24.27V12.5065H35.6292V13.6284Z" fill="#1490BD"/>
<path d="M35.6292 16.5752H24.27V15.4524H35.6292V16.5752Z" fill="#1490BD"/>
<path d="M22.5511 7.17413C22.5511 7.48416 22.2997 7.7356 21.9897 7.7356C21.6797 7.7356 21.4282 7.48416 21.4282 7.17413C21.4282 6.8641 21.6797 6.61193 21.9897 6.61193C22.2997 6.61193 22.5511 6.8641 22.5511 7.17413Z" fill="#004592"/>
<path d="M22.5511 10.1202C22.5511 10.4302 22.2997 10.6824 21.9897 10.6824C21.6797 10.6824 21.4282 10.4302 21.4282 10.1202C21.4282 9.81003 21.6797 9.55956 21.9897 9.55956C22.2997 9.55956 22.5511 9.81003 22.5511 10.1202Z" fill="#004592"/>
<path d="M22.5511 13.0671C22.5511 13.3771 22.2997 13.6284 21.9897 13.6284C21.6797 13.6284 21.4282 13.3771 21.4282 13.0671C21.4282 12.757 21.6797 12.5065 21.9897 12.5065C22.2997 12.5065 22.5511 12.757 22.5511 13.0671Z" fill="#004592"/>
<path d="M22.5511 16.0138C22.5511 16.3239 22.2997 16.5752 21.9897 16.5752C21.6797 16.5752 21.4282 16.3239 21.4282 16.0138C21.4282 15.7038 21.6797 15.4524 21.9897 15.4524C22.2997 15.4524 22.5511 15.7038 22.5511 16.0138Z" fill="#004592"/>
<path d="M62.6138 28.6026C62.6138 31.5449 61.2235 33.9304 59.5082 33.9304C57.794 33.9304 56.4026 31.5449 56.4026 28.6026C56.4026 25.6586 57.794 23.2736 59.5082 23.2736C61.2235 23.2736 62.6138 25.6586 62.6138 28.6026Z" fill="#004592"/>
<path d="M59.5082 33.9304C61.2235 33.9304 62.6138 31.5449 62.6138 28.6026H56.4026C56.4026 31.5449 57.794 33.9304 59.5082 33.9304Z" fill="#002541"/>
<path d="M30.7552 23.6145L27.9639 28.6027H26.6992L27.331 29.733L26.6992 30.8621H27.9639L30.7552 35.8502C40.6132 35.8502 45.9029 39.4376 53.3106 45.942L58.9082 50.8552V30.8621V28.6027V8.60955L53.3106 13.5241C45.9029 20.0271 40.6132 23.6145 30.7552 23.6145Z" fill="#FDC00E"/>
<path d="M27.331 29.733L26.6992 30.8621H27.9639L30.7552 35.8502C40.6132 35.8502 45.9029 39.4376 53.3106 45.942L58.9082 50.8552V30.8621V29.733H27.331Z" fill="#F99C1D"/>
<path d="M30.9149 39.0042H9.39935C8.72922 39.0042 8.18481 38.4606 8.18481 37.7898V21.6745C8.18481 21.0032 8.72922 20.4609 9.39935 20.4609H30.9149C31.5861 20.4609 32.1295 21.0032 32.1295 21.6745V37.7898C32.1295 38.4606 31.5861 39.0042 30.9149 39.0042Z" fill="#002541"/>
<path d="M14.1443 39.0039V59.6426H29.7693L24.0993 39.0039H14.1443Z" fill="#1490BD"/>
<path d="M32.1295 29.7327V21.674C32.1295 21.0027 31.5861 20.4605 30.9149 20.4605H9.39935C8.72922 20.4605 8.18481 21.0027 8.18481 21.674V29.7327H32.1295Z" fill="#004592"/>
<path d="M21.9558 59.6426H29.7683L24.0983 39.0039H19.4873L21.9558 59.6426Z" fill="#00609A"/>
</svg>
