<svg width="54" height="59" viewBox="0 0 54 59" fill="none" xmlns="http://www.w3.org/2000/svg">
<path d="M51.6796 58.9814H2.23218V3.84613H51.6796V58.9814Z" fill="#1490BD"/>
<path d="M51.6794 58.9814H26.9551V3.84613H51.6794V58.9814Z" fill="#00609A"/>
<path d="M18.7213 17.7905H6.66211V8.17458H18.7213V17.7905Z" fill="#96E0F4"/>
<path d="M33.0758 17.7905H21.0166V8.17458H33.0758V17.7905Z" fill="#96E0F4"/>
<path d="M47.4318 17.7905H35.3726V8.17458H47.4318V17.7905Z" fill="#96E0F4"/>
<path d="M33.0761 17.7905H27.0459V8.17458H33.0761V17.7905Z" fill="#4FC2D9"/>
<path d="M18.7224 17.7905H12.6934V8.17458H18.7224V17.7905Z" fill="#4FC2D9"/>
<path d="M47.4321 17.7905H41.4019V8.17458H47.4321V17.7905Z" fill="#4FC2D9"/>
<path d="M18.7213 29.4907H6.66211V19.8748H18.7213V29.4907Z" fill="#96E0F4"/>
<path d="M33.0758 29.4907H21.0166V19.8748H33.0758V29.4907Z" fill="#96E0F4"/>
<path d="M47.4318 29.4907H35.3726V19.8748H47.4318V29.4907Z" fill="#96E0F4"/>
<path d="M33.0761 29.4907H27.0459V19.8748H33.0761V29.4907Z" fill="#4FC2D9"/>
<path d="M18.7224 29.4907H12.6934V19.8748H18.7224V29.4907Z" fill="#4FC2D9"/>
<path d="M47.4321 29.4907H41.4019V19.8748H47.4321V29.4907Z" fill="#4FC2D9"/>
<path d="M18.7213 41.1909H6.66211V31.5746H18.7213V41.1909Z" fill="#96E0F4"/>
<path d="M33.0758 41.1909H21.0166V31.5746H33.0758V41.1909Z" fill="#96E0F4"/>
<path d="M47.4318 41.1909H35.3726V31.5746H47.4318V41.1909Z" fill="#96E0F4"/>
<path d="M33.0761 41.1909H27.0459V31.5746H33.0761V41.1909Z" fill="#4FC2D9"/>
<path d="M18.7224 41.1909H12.6934V31.5746H18.7224V41.1909Z" fill="#4FC2D9"/>
<path d="M47.4321 41.1909H41.4019V31.5746H47.4321V41.1909Z" fill="#4FC2D9"/>
<path d="M18.7213 52.8909H6.66211V43.2749H18.7213V52.8909Z" fill="#96E0F4"/>
<path d="M47.4318 52.8909H35.3726V43.2749H47.4318V52.8909Z" fill="#96E0F4"/>
<path d="M18.7224 52.8909H12.6934V43.2749H18.7224V52.8909Z" fill="#4FC2D9"/>
<path d="M47.4321 52.8909H41.4019V43.2749H47.4321V52.8909Z" fill="#4FC2D9"/>
<path d="M53.9107 0.000180006H0V3.84619H53.9107V0.000180006Z" fill="#004592"/>
<path d="M53.9111 0.000180006H26.9551V3.84619H53.9111V0.000180006Z" fill="#002541"/>
<path d="M36.5917 58.9814H17.3181V46.3192H36.5917V58.9814Z" fill="#004592"/>
<path d="M36.5919 58.9814H26.9551V46.3192H36.5919V58.9814Z" fill="#0E2830"/>
<path d="M39.3176 39.5887H14.5945V46.3191H39.3176V39.5887Z" fill="#004592"/>
<path d="M39.3178 39.5887H26.9551V46.3191H39.3178V39.5887Z" fill="#002541"/>
<path d="M32.9848 58.9814H20.9255V48.0822H32.9848V58.9814Z" fill="#96E0F4"/>
<path d="M32.9853 58.9814H26.9551V48.0822H32.9853V58.9814Z" fill="#4FC2D9"/>
<path d="M18.32 42.9538C18.32 43.5963 18.5839 43.9192 19.1083 43.9192C19.377 43.9192 19.575 43.8405 19.7034 43.6845C19.8329 43.528 19.8965 43.2851 19.8965 42.9538C19.8965 42.6211 19.8329 42.3756 19.701 42.2172C19.5702 42.0592 19.3746 41.9793 19.1143 41.9793C18.5852 41.9793 18.32 42.3042 18.32 42.9538ZM21.01 42.9538C21.01 43.5125 20.848 43.9387 20.5264 44.2308C20.2025 44.5221 19.731 44.667 19.1083 44.667C18.4952 44.667 18.026 44.5209 17.6985 44.2288C17.3721 43.9347 17.2078 43.5098 17.2078 42.9498C17.2078 42.3959 17.3709 41.973 17.6961 41.6801C18.0212 41.388 18.4952 41.2427 19.1143 41.2427C19.737 41.2427 20.2073 41.3868 20.5288 41.6769C20.8492 41.967 21.01 42.3932 21.01 42.9538Z" fill="#FDC00E"/>
<path d="M22.9753 44.6223H21.9363V41.2951H24.2447V42.0162H22.9753V42.6514H24.1451V43.3729H22.9753V44.6223Z" fill="#FDC00E"/>
<path d="M26.143 44.6223H25.1028V41.2951H27.4136V42.0162H26.143V42.6514H27.314V43.3729H26.143V44.6223Z" fill="#FDC00E"/>
<path d="M28.2756 44.6223V41.2951H29.3375V44.6223H28.2756Z" fill="#FDC00E"/>
<path d="M32.1408 41.9833C31.8888 41.9833 31.6932 42.0712 31.5516 42.2471C31.4113 42.4227 31.3417 42.6638 31.3417 42.9714C31.3417 43.6119 31.6272 43.9327 32.1983 43.9327C32.3723 43.9327 32.5403 43.9119 32.7011 43.8713C32.863 43.8305 33.0274 43.7803 33.1906 43.722V44.483C32.8642 44.6067 32.4947 44.667 32.0843 44.667C31.4928 44.667 31.0429 44.5221 30.7274 44.2308C30.413 43.9387 30.2546 43.5177 30.2546 42.967C30.2546 42.623 30.3314 42.3193 30.485 42.0599C30.6374 41.7986 30.8558 41.5971 31.1425 41.4574C31.4281 41.3161 31.764 41.2467 32.1503 41.2467C32.5739 41.2467 32.977 41.3245 33.3609 41.4809L33.0382 42.1897C32.893 42.1315 32.749 42.0823 32.6051 42.0436C32.4611 42.0038 32.3051 41.9833 32.1408 41.9833Z" fill="#FDC00E"/>
<path d="M36.4925 44.6223H34.1721V41.2951H36.4925V42.0162H35.228V42.5393H36.3978V43.2604H35.228V43.8897H36.4925V44.6223Z" fill="#FDC00E"/>
</svg>
