<svg width="67" height="49" viewBox="0 0 67 49" fill="none" xmlns="http://www.w3.org/2000/svg">
<path d="M34.6324 0.918127C40.2171 0.918127 44.7427 3.90434 44.7427 7.58844C44.7427 9.20753 43.8679 10.6906 42.4143 11.846L44.788 17.0464L39.472 13.445C38.0351 13.9635 36.3866 14.258 34.6324 14.258C29.0493 14.258 24.5229 11.2725 24.5229 7.58844C24.5229 3.90434 29.0493 0.918127 34.6324 0.918127Z" fill="#DADADA"/>
<path d="M32.3356 0.000246048C26.7516 0.000246048 22.2253 2.98648 22.2253 6.6698C22.2253 8.28889 23.1008 9.77272 24.5545 10.9281L21.7061 16.8318L27.4959 12.5271C28.9329 13.0449 30.5821 13.3401 32.3356 13.3401C37.9187 13.3401 42.4458 10.3539 42.4458 6.6698C42.4458 2.98648 37.9187 0.000246048 32.3356 0.000246048Z" fill="#EDEDED"/>
<path d="M29.8061 7.57255C29.8061 7.95897 29.4832 8.27197 29.0856 8.27197C28.688 8.27197 28.366 7.95897 28.366 7.57255C28.366 7.18614 28.688 6.87236 29.0856 6.87236C29.4832 6.87236 29.8061 7.18614 29.8061 7.57255Z" fill="#3C3C3B"/>
<path d="M32.7952 7.57255C32.7952 7.95897 32.4731 8.27197 32.0747 8.27197C31.6771 8.27197 31.3542 7.95897 31.3542 7.57255C31.3542 7.18614 31.6771 6.87236 32.0747 6.87236C32.4731 6.87236 32.7952 7.18614 32.7952 7.57255Z" fill="#3C3C3B"/>
<path d="M35.7851 7.57255C35.7851 7.95897 35.4623 8.27197 35.0647 8.27197C34.6671 8.27197 34.3442 7.95897 34.3442 7.57255C34.3442 7.18614 34.6671 6.87236 35.0647 6.87236C35.4623 6.87236 35.7851 7.18614 35.7851 7.57255Z" fill="#3C3C3B"/>
<path d="M17.6354 47.7273L17.5241 29.4127C14.5612 29.3748 14.0586 29.3702 13.9711 29.3702C13.8837 29.3702 13.3803 29.3748 10.4174 29.4127L10.3076 47.7273H17.6354Z" fill="#F2C28D"/>
<path d="M10.3825 48.5723L8.6792 33.6921L10.3873 32.4641L13.9705 34.9627L17.5529 32.4641L19.261 33.6921L17.5577 48.5723H10.3825Z" fill="white"/>
<path d="M13.9694 48.5653L9.6729 32.9425L8.67809 33.6921L3.02576 36.1729C1.21031 36.751 0 38.3832 0 40.2334V48.5723H27.938V40.2334C27.938 38.3832 26.7277 36.751 24.9122 36.1729L19.2599 33.6921L18.2651 32.9425L13.9694 48.5653Z" fill="#61554E"/>
<path d="M13.1142 37.3027L12.8391 34.883L13.8824 34.9348L13.9691 34.9301L14.055 34.9348L15.0983 34.883L14.8231 37.3027H13.1142Z" fill="#B82922"/>
<path d="M11.7261 37.3027L8.90942 33.3466L9.67283 32.9424L10.3861 32.464L13.9693 34.9626L11.7261 37.3027Z" fill="#F6F6F6"/>
<path d="M16.2127 37.3027L19.0293 33.3466L18.2659 32.9424L17.5526 32.464L13.9702 34.9626L16.2127 37.3027Z" fill="#F6F6F6"/>
<path d="M13.9714 46.1484L12.478 45.6075L13.1166 37.3026H14.8255L15.464 45.6075L13.9714 46.1484Z" fill="#C92D25"/>
<path d="M13.9685 45.9191L9.67201 32.9425L6.22876 34.7672L7.03907 37.7611L8.94042 37.5849L7.37148 38.6924L13.9661 48.5723L13.9685 48.5591L13.9701 48.5723L20.5647 38.6924L18.9958 37.5849L20.8979 37.7611L21.7082 34.7672L18.2642 32.9425L13.9685 45.9191Z" fill="#A18D81"/>
<path d="M21.0349 21.349C20.9084 21.3282 20.7804 21.3452 20.6556 21.3908V18.4424C20.6556 16.0126 18.6278 14.0427 16.1285 14.0427H11.8041C9.30402 14.0427 7.27702 16.0126 7.27702 18.4424V21.3908C7.15218 21.3452 7.02494 21.3282 6.89771 21.349C6.23212 21.4542 6.12001 22.4959 6.31484 23.6645C6.47149 24.6119 6.69255 25.3446 7.22375 25.5394C7.3478 25.5873 7.47822 25.6027 7.60227 25.5819L7.71439 25.5486C8.00782 26.8941 8.39827 27.9591 8.89766 28.6709C9.48771 29.5133 9.94336 30.147 10.3656 30.6231C11.3246 31.7035 12.1167 31.9678 13.9345 31.9678H13.9599H13.9663H13.9727H13.9981C16.0362 31.9678 16.3877 31.9516 17.5662 30.6231C17.9901 30.147 18.4449 29.5133 19.035 28.6709C19.5343 27.9591 19.9248 26.8941 20.2182 25.5486L20.3303 25.5819C20.4544 25.6027 20.5848 25.5873 20.7097 25.5394C21.2409 25.3446 21.4611 24.6119 21.6178 23.6645C21.8126 22.4959 21.7013 21.4542 21.0349 21.349Z" fill="#FFD2A1"/>
<path d="M13.9669 12.8433H13.9605C11.0723 12.8433 9.62746 13.3255 8.18257 14.8148C7.18379 15.8442 6.63271 17.216 6.68758 18.6318L6.8983 21.3491C7.26171 21.2911 7.63546 21.5222 7.93286 21.938V18.7902C7.93286 17.4107 9.08194 16.2948 10.5014 16.2948H17.4332C18.8527 16.2948 20.0001 17.4107 20.0001 18.7902V21.938C20.2983 21.5222 20.6729 21.2911 21.0355 21.3491L21.2462 18.6318C21.3011 17.216 20.75 15.8442 19.752 14.8148C18.3063 13.3255 16.8622 12.8433 13.9733 12.8433H13.9669Z" fill="#3C3C3B"/>
<path d="M20.967 19.1597C16.9735 19.0693 12.4408 19.9705 8.83856 17.4518C7.45888 16.7014 8.45208 15.359 8.45208 15.359H19.2852L20.967 19.1597Z" fill="#3C3C3B"/>
<path d="M56.1931 47.7273L56.0825 29.4127C53.1204 29.3748 52.6178 29.3702 52.5287 29.3702C52.4413 29.3702 51.9387 29.3748 48.9766 29.4127L48.8652 47.7273H56.1931Z" fill="#E5AE71"/>
<path d="M48.9427 48.5723L47.2385 33.6921L48.9466 32.4641L52.529 34.9627L56.1122 32.4641L57.8211 33.6921L56.117 48.5723H48.9427Z" fill="white"/>
<path d="M52.5282 48.5653L48.2324 32.9425L47.2376 33.6921L41.5861 36.1729C39.7699 36.751 38.5596 38.3832 38.5596 40.2334V48.5723H66.4983V40.2334C66.4983 38.3832 65.2872 36.751 63.4718 36.1729L57.8203 33.6921L56.8254 32.9425L52.5282 48.5653Z" fill="#3C3C3B"/>
<path d="M51.6736 37.3027L51.3984 34.883L52.4418 34.9348L52.5276 34.9301L52.6151 34.9348L53.6576 34.883L53.3833 37.3027H51.6736Z" fill="#00918B"/>
<path d="M50.2854 37.3027L47.4688 33.3466L48.2321 32.9424L48.9454 32.464L52.5278 34.9626L50.2854 37.3027Z" fill="#F6F6F6"/>
<path d="M54.7719 37.3027L57.5885 33.3466L56.8251 32.9424L56.111 32.464L52.5278 34.9626L54.7719 37.3027Z" fill="#F6F6F6"/>
<path d="M52.5263 46.1484L51.0337 45.6075L51.6722 37.3026H53.3819L54.0197 45.6075L52.5263 46.1484Z" fill="#00A19A"/>
<path d="M52.5261 45.9191L48.2304 32.9425L44.7864 34.7672L45.5967 37.7611L47.4988 37.5849L45.9299 38.6924L52.5245 48.5723L52.5261 48.5591L52.5285 48.5723L59.1231 38.6924L57.5542 37.5849L59.4555 37.7611L60.2666 34.7672L56.8234 32.9425L52.5261 45.9191Z" fill="#575756"/>
<path d="M59.5931 21.349C59.4667 21.3282 59.3395 21.3452 59.2138 21.3908V18.4424C59.2138 16.0126 57.1868 14.0427 54.6867 14.0427H50.3632C47.8623 14.0427 45.8353 16.0126 45.8353 18.4424V21.3908C45.7104 21.3452 45.5824 21.3282 45.4568 21.349C44.7904 21.4542 44.6774 22.4959 44.8723 23.6645C45.0305 24.6119 45.2508 25.3446 45.7812 25.5394C45.9061 25.5873 46.0357 25.6027 46.1605 25.5819L46.2718 25.5486C46.5661 26.8941 46.9565 27.9591 47.4551 28.6709C48.0467 29.5133 48.5016 30.147 48.9238 30.6231C49.8829 31.7035 50.6749 31.9678 52.4927 31.9678H52.519H52.5245H52.5301H52.5564C54.5937 31.9678 54.9459 31.9516 56.1252 30.6231C56.5483 30.147 57.0031 29.5133 57.5932 28.6709C58.0926 27.9591 58.483 26.8941 58.7773 25.5486L58.8886 25.5819C59.0134 25.6027 59.1438 25.5873 59.2679 25.5394C59.7991 25.3446 60.0194 24.6119 60.176 23.6645C60.3716 22.4959 60.2595 21.4542 59.5931 21.349Z" fill="#F2BD83"/>
<path d="M52.5264 12.8433H52.5208C49.6318 12.8433 48.1861 13.3255 46.742 14.8148C45.7432 15.8442 45.193 17.216 45.2471 18.6318L45.4586 21.3491C45.8212 21.2911 46.1949 21.5222 46.4931 21.938V18.7902C46.4931 17.4107 47.6414 16.2948 49.0609 16.2948H55.9927C57.4113 16.2948 58.5596 17.4107 58.5596 18.7902V21.938C58.8578 21.5222 59.2315 21.2911 59.595 21.3491L59.8065 18.6318C59.8597 17.216 59.3095 15.8442 58.3107 14.8148C56.8658 13.3255 55.4217 12.8433 52.5319 12.8433H52.5264Z" fill="#706F6F"/>
</svg>
