<svg width="65" height="59" viewBox="0 0 65 59" fill="none" xmlns="http://www.w3.org/2000/svg">
<path d="M63.5212 8.53268C61.1357 5.93944 56.6422 4.03911 51.8078 2.66231C45.4834 0.857533 38.9485 -0.0234756 32.417 0.00258255V57.8714C32.5039 57.9145 32.5907 57.9615 32.6809 58.002C56.3482 47.3371 69.1473 13.5701 63.5212 8.53268Z" fill="#343333"/>
<path d="M1.31669 8.53268C3.70213 5.93944 8.19571 4.03911 13.0267 2.66231C19.3511 0.857533 25.886 -0.0234756 32.4209 0.00258255V57.8714C32.3307 57.9145 32.2438 57.9615 32.1569 58.002C8.48971 47.3371 -4.30945 13.5701 1.31669 8.53268Z" fill="#4F4E4E"/>
<path d="M51.8297 13.8716C51.3587 13.9488 51.0312 14.3884 51.0312 14.8699V15.6857C50.3129 15.6857 49.6079 15.4886 48.9965 15.1181L46.5176 13.604C45.071 12.722 43.4139 12.2572 41.72 12.2572H39.9793C38.7031 12.2572 37.4403 12.5209 36.2709 13.0364L34.6974 13.7279C34.6506 13.1095 34.1461 12.6214 33.5147 12.6214H33.194C33.194 12.6214 35.4825 11.4795 32.4188 8.52609C29.3552 11.4795 31.6404 12.6214 31.6404 12.6214H31.3196C30.6916 12.6214 30.1837 13.1095 30.1369 13.7279L28.5634 13.0364C27.394 12.5209 26.1345 12.2572 24.8582 12.2572H23.1143C21.4238 12.2572 19.7634 12.722 18.3167 13.604L15.8377 15.1181C15.223 15.4886 14.5248 15.6857 13.8065 15.6857V14.8699C13.8065 14.3884 13.479 13.9488 13.0046 13.8716C12.4032 13.7737 11.8821 14.2358 11.8821 14.8164V15.7783C11.8821 16.41 12.3966 16.9215 13.0247 16.9215H14.2775C14.9858 16.9215 15.6774 16.7271 16.2854 16.3669L18.2967 15.1635C19.7266 14.3089 21.3603 13.8572 23.0241 13.8572C24.6845 13.8572 26.3149 14.3049 27.7449 15.1545C28.53 15.6256 29.4287 15.8698 30.3475 15.8698H31.3196C31.3196 17.2426 30.9521 18.2476 30.9521 18.2476C29.4921 20.9006 29.7662 21.6329 30.862 25.1068C31.9611 28.5848 30.7717 33.1551 29.9031 35.0761C29.0311 36.9972 29.9031 37.7319 29.9031 37.7319H29.6291C28.3896 37.7319 27.3874 38.7342 27.3874 39.9701V40.6592H32.4188H37.4503V39.9701C37.4503 38.7342 36.4447 37.7319 35.2085 37.7319H34.9346C34.9346 37.7319 35.8032 36.9972 34.9346 35.0761C34.0626 33.1551 32.8765 28.5848 33.9723 25.1068C35.0715 21.6329 35.3455 20.9006 33.8788 18.2476C33.8788 18.2476 33.5147 17.2426 33.5147 15.8698H34.4869C35.4056 15.8698 36.3077 15.6256 37.0928 15.1545C38.5194 14.3049 40.1465 13.8572 41.8069 13.8572C43.4774 13.8572 45.1111 14.3089 46.541 15.1635L48.5489 16.3669C49.1569 16.7271 49.8519 16.9215 50.5568 16.9215H51.8097C52.4411 16.9215 52.9522 16.41 52.9522 15.7783V14.8164C52.9522 14.2358 52.4311 13.7737 51.8297 13.8716Z" fill="white"/>
<path d="M9.00069 29.052H16.3976L12.7025 15.9259L9.00069 29.052ZM16.755 29.5767C16.7517 29.5767 16.7517 29.5767 16.7451 29.5767H8.65657C8.57304 29.5767 8.49624 29.5401 8.44613 29.4736C8.39935 29.4096 8.38268 29.3235 8.39939 29.2465L12.4452 14.8909C12.512 14.6624 12.8862 14.6624 12.9531 14.8909L16.9756 29.1734C17.0056 29.2126 17.0223 29.2634 17.0223 29.317C17.0223 29.4605 16.902 29.5767 16.755 29.5767Z" fill="white"/>
<path d="M16.317 31.0437H9.08386C7.9279 31.0437 6.99243 30.108 6.99243 28.953H18.4085C18.4085 30.108 17.4697 31.0437 16.317 31.0437Z" fill="white"/>
<path d="M48.4378 29.0515H55.838L52.1362 15.9255L48.4378 29.0515ZM56.1954 29.5762C56.1921 29.5801 56.1854 29.5801 56.1821 29.5762H48.0903C48.0101 29.5762 47.9333 29.5396 47.8832 29.4731C47.8331 29.4091 47.8164 29.323 47.8397 29.246L51.8857 14.8904C51.9491 14.6619 52.3267 14.6619 52.3868 14.8904L56.4126 29.1729C56.4394 29.2121 56.456 29.263 56.456 29.3165C56.456 29.46 56.3391 29.5762 56.1954 29.5762Z" fill="white"/>
<path d="M55.7536 31.0437H48.517C47.3644 31.0437 46.429 30.108 46.429 28.953H57.8417C57.8417 30.108 56.9062 31.0437 55.7536 31.0437Z" fill="white"/>
</svg>
