<svg width="61" height="60" viewBox="0 0 61 60" fill="none" xmlns="http://www.w3.org/2000/svg">
<path d="M45.4632 58.0653C45.4632 59.125 38.6464 59.9844 30.2357 59.9844C21.8251 59.9844 15.0073 59.125 15.0073 58.0653C15.0073 57.0057 21.8251 56.1463 30.2357 56.1463C38.6464 56.1463 45.4632 57.0057 45.4632 58.0653Z" fill="url(#paint0_radial)"/>
<path d="M8.4408 20.2722L7.83887 18.7558L52.4412 1.07802L53.0421 2.59543L8.4408 20.2722Z" fill="#403F41"/>
<path d="M31.2568 56.4341H29.6252V10.6753H31.2568V56.4341Z" fill="#403F41"/>
<path d="M38.3612 58.0647H22.5173V53.1699H38.3612V58.0647Z" fill="#B6B6B1"/>
<path d="M15.4912 49.2947L7.74634 19.6179L8.53407 19.4108L16.2799 49.0885L15.4912 49.2947Z" fill="#403F41"/>
<path d="M0.788725 49.2947L0 49.0885L7.74582 19.4108L8.53355 19.6179L0.788725 49.2947Z" fill="#403F41"/>
<path d="M8.54895 49.7021H7.73218V19.5134H8.54895V49.7021Z" fill="#403F41"/>
<path d="M60.0937 31.6169L52.3489 1.93819L53.1366 1.73304L60.8825 31.4098L60.0937 31.6169Z" fill="#403F41"/>
<path d="M45.3912 31.6169L44.6025 31.4098L52.3483 1.73304L53.1361 1.93819L45.3912 31.6169Z" fill="#403F41"/>
<path d="M53.1515 32.0244H52.3347V1.83663H53.1515V32.0244Z" fill="#403F41"/>
<path d="M33.9763 10.6753C33.9763 12.6272 32.3931 14.2104 30.4402 14.2104C28.4873 14.2104 26.905 12.6272 26.905 10.6753C26.905 8.72334 28.4873 7.13915 30.4402 7.13915C32.3931 7.13915 33.9763 8.72334 33.9763 10.6753Z" fill="#B6B6B1"/>
<path d="M9.97605 19.5136C9.97605 20.5268 9.15347 21.3503 8.13928 21.3503C7.12605 21.3503 6.30444 20.5268 6.30444 19.5136C6.30444 18.4994 7.12605 17.6787 8.13928 17.6787C9.15347 17.6787 9.97605 18.4994 9.97605 19.5136Z" fill="#B6B6B1"/>
<path d="M54.5786 1.83678C54.5786 2.85001 53.756 3.67261 52.7428 3.67261C51.7296 3.67261 50.907 2.85001 50.907 1.83678C50.907 0.822584 51.7296 4.52995e-06 52.7428 4.52995e-06C53.756 4.52995e-06 54.5786 0.822584 54.5786 1.83678Z" fill="#B6B6B1"/>
<path d="M0.0390625 48.8352C0.661321 51.6077 4.04648 53.731 8.14003 53.731C12.2346 53.731 15.6217 51.6077 16.2429 48.8352H0.0390625Z" fill="#B6B6B1"/>
<path d="M44.6399 31.1574C45.2612 33.93 48.6473 36.0522 52.7418 36.0522C56.8354 36.0522 60.2215 33.93 60.8438 31.1574H44.6399Z" fill="#B6B6B1"/>
<path d="M38.3615 58.0647H30.2334V53.1699H38.3615V58.0647Z" fill="#C8C7C5"/>
<path d="M30.441 7.13915C30.4091 7.13915 30.3791 7.14787 30.3472 7.14883V14.2008C30.3791 14.2017 30.4091 14.2104 30.441 14.2104C32.3939 14.2104 33.9772 12.6272 33.9772 10.6753C33.9772 8.72334 32.3939 7.13915 30.441 7.13915Z" fill="#C8C7C5"/>
<path d="M52.6794 36.0503C52.7017 36.0513 52.722 36.0522 52.7433 36.0522C56.8369 36.0522 60.223 33.93 60.8452 31.1574H52.6794V36.0503Z" fill="#C8C7C5"/>
<path d="M8.15161 53.729C8.17193 53.729 8.19227 53.731 8.21453 53.731C12.309 53.731 15.6952 51.6068 16.3165 48.8352H8.15161V53.729Z" fill="#C8C7C5"/>
<path d="M32.3308 10.6752C32.3308 11.7184 31.483 12.5652 30.4398 12.5652C29.3966 12.5652 28.5498 11.7184 28.5498 10.6752C28.5498 9.63195 29.3966 8.78518 30.4398 8.78518C31.483 8.78518 32.3308 9.63195 32.3308 10.6752Z" fill="#403F41"/>
<path d="M5.72856 40.7777C6.08953 42.1151 7.02631 43.1497 8.12663 43.1497C9.23276 43.1497 10.1695 42.1113 10.5305 40.7729C10.5344 40.7767 10.5392 40.7806 10.546 40.7806C10.6505 40.7806 10.9466 40.4555 10.9466 40.0538C10.9466 39.6513 10.8634 39.3251 10.757 39.3251C10.7299 39.3251 10.7037 39.3464 10.6815 39.3832C10.6002 37.6548 9.48921 36.6822 8.12663 36.6822C6.7747 36.6822 5.66858 37.6451 5.57858 39.3561C5.55923 39.3397 5.5418 39.3251 5.52438 39.3251C5.41987 39.3251 5.33374 39.6513 5.33374 40.0538C5.33374 40.4477 5.61921 40.7661 5.72856 40.7777Z" fill="#EBBA8E"/>
<path d="M13.9366 46.9492L13.4537 45.2305L10.6269 43.9337L8.84725 46.2002L8.72241 44.6866H8.15336H8.1282H7.56112L7.43628 46.2011L5.65465 43.9337L2.82787 45.2305L2.34497 46.9492V47.6973H13.9366V46.9492Z" fill="#2D2C2C"/>
<path d="M7.55957 44.4038H8.74215V43.4622H7.55957V44.4038Z" fill="#CF2F24"/>
<path d="M7.56015 44.6862H8.72144L8.84628 46.1998L8.13885 47.1433L7.4353 46.2007L7.56015 44.6862Z" fill="#CF2F24"/>
<path d="M10.5325 40.7729C10.5364 40.7767 10.5412 40.7806 10.548 40.7806C10.6525 40.7806 10.9487 40.4555 10.9487 40.0538C10.9487 39.6513 10.8655 39.3251 10.759 39.3251C10.7319 39.3251 10.7058 39.3464 10.6835 39.3832C10.6022 37.6548 9.49124 36.6822 8.12866 36.6822V43.1497C9.23479 43.1497 10.1716 42.1113 10.5325 40.7729Z" fill="#F4CE9D"/>
<defs>
<radialGradient id="paint0_radial" cx="0" cy="0" r="1" gradientUnits="userSpaceOnUse" gradientTransform="translate(30.2348 58.0653) scale(15.2241 1.91947)">
<stop stop-color="#BCBCBD"/>
<stop offset="1" stop-color="white"/>
</radialGradient>
</defs>
</svg>
