<svg width="58" height="54" viewBox="0 0 58 54" fill="none" xmlns="http://www.w3.org/2000/svg">
<path d="M26.6985 48.1541H31.3083V51.6962C31.3083 52.9691 30.2756 54 29.0057 54C27.7311 54 26.6985 52.9691 26.6985 51.6962V48.1541Z" fill="url(#paint0_linear)"/>
<path d="M5.25329 17.0206H29.0033V53.5127H5.66049C2.53326 53.5127 0 50.9785 0 47.854V22.2761C0 19.3733 2.35103 17.0206 5.25329 17.0206Z" fill="url(#paint1_linear)"/>
<path d="M29.0023 51.1543C21.7962 45.4265 10.1198 45.4265 2.91479 51.1543C2.91479 39.7764 2.91479 28.4015 2.91479 17.0207C10.1198 11.2958 21.7962 11.2958 29.0023 17.0207C29.0023 28.4015 29.0023 39.7764 29.0023 51.1543Z" fill="#E6E6E6"/>
<path d="M52.7502 17.0206H29.0012V53.5127H52.3395C55.4666 53.5127 57.9999 50.9785 57.9999 47.854V22.2761C57.9999 19.3733 55.6489 17.0206 52.7502 17.0206Z" fill="url(#paint2_linear)"/>
<path d="M29.0012 51.1543C36.2029 45.4265 47.8814 45.4265 55.0842 51.1543C55.0842 39.7764 55.0842 28.4015 55.0842 17.0207C47.8814 11.2958 36.2029 11.2958 29.0012 17.0207C29.0012 28.4015 29.0012 39.7764 29.0012 51.1543Z" fill="#C9C9C9"/>
<path d="M33.9319 34.377L36.0131 29.2395L36.7779 30.0718V27.4339L41.499 17.853L43.1652 17.159L42.1944 16.0474C42.1944 16.0474 44.1371 9.79836 43.9997 6.32827L47.7492 0.355694L52.1912 9.24257L49.5533 19.5204L47.054 20.2115L47.7492 24.0992L39.8319 32.2949L37.6105 31.598L38.1671 33.2654L33.9319 34.377Z" fill="#2A394A"/>
<path d="M34.2957 34.5266C35.0819 33.7404 35.6838 32.9369 36.0135 32.2948C35.3687 32.6202 34.5679 33.2249 33.7829 34.0111C33.7489 34.0427 33.7186 34.0744 33.6904 34.1032C32.9031 34.7339 32.2281 35.4365 31.8491 36.001C32.5037 35.7591 33.3002 35.3127 34.1708 34.6504C34.2114 34.6101 34.2528 34.5669 34.2957 34.5266Z" fill="#2A394A"/>
<defs>
<linearGradient id="paint0_linear" x1="26.6996" y1="51.0771" x2="31.3091" y2="51.0771" gradientUnits="userSpaceOnUse">
<stop stop-color="#E4B60B"/>
<stop offset="1" stop-color="#99743D"/>
</linearGradient>
<linearGradient id="paint1_linear" x1="0.000454999" y1="35.2695" x2="29.002" y2="35.2695" gradientUnits="userSpaceOnUse">
<stop stop-color="#E4B60B"/>
<stop offset="1" stop-color="#99743D"/>
</linearGradient>
<linearGradient id="paint2_linear" x1="28.9998" y1="35.2695" x2="58.0014" y2="35.2695" gradientUnits="userSpaceOnUse">
<stop stop-color="#E4B60B"/>
<stop offset="1" stop-color="#99743D"/>
</linearGradient>
</defs>
</svg>
