<svg width="63" height="65" viewBox="0 0 63 65" fill="none" xmlns="http://www.w3.org/2000/svg">
<path d="M31.4634 43.5007H0V-0.000228882H31.4634V43.5007Z" fill="#EDEDED"/>
<path d="M28.8028 11.1754H21.866V4.23851H28.8028V11.1754Z" fill="white"/>
<path d="M28.8028 20.9746H21.866V14.038H28.8028V20.9746Z" fill="white"/>
<path d="M28.8028 30.7748H21.866V23.8379H28.8028V30.7748Z" fill="white"/>
<path d="M28.8028 40.4301H21.866V33.4931H28.8028V40.4301Z" fill="white"/>
<path d="M27.3213 12.7398L25.3607 17.3911L23.992 14.7535H22.4553L25.4898 20.5977L28.8017 12.7398H27.3213Z" fill="#00A19A"/>
<path d="M52.3944 25.4348L45.4631 19.1604L46.8143 26.175L52.3944 25.4348Z" fill="#F5C08C"/>
<path d="M40.9334 34.4245L43.3814 32.4646C44.4347 31.6222 44.6748 30.088 43.9187 29.0386L43.891 29.0004C43.1357 27.9513 41.6696 27.7832 40.6164 28.6256L38.1691 30.5864C36.122 32.3538 38.307 35.9771 40.9334 34.4245Z" fill="#DEAA78"/>
<path d="M42.5012 37.8883L44.3945 36.22C45.2092 35.5021 45.2932 34.188 44.5823 33.2831L44.5562 33.2506C43.8461 32.347 42.6098 32.195 41.7959 32.9129L39.9026 34.5811C37.9958 36.1875 40.3076 39.4765 42.5012 37.8883Z" fill="#DEAA78"/>
<path d="M39.1219 30.3446L42.6961 27.2634C43.7501 26.4201 43.7874 25.7059 43.0321 24.6568L43.2065 23.7984C42.4512 22.7483 40.9843 22.582 39.9318 23.4244L36.3568 26.5074C34.3098 28.2738 36.4963 31.8971 39.1219 30.3446Z" fill="#E6B07C"/>
<path d="M37.6142 24.5449C38.0675 24.5114 42.0182 23.7158 42.0182 23.7158C43.3361 23.4923 44.2459 22.2775 44.0502 21.003L44.0438 20.9572C43.8481 19.682 45.6796 18.349 44.3616 18.5725L36.8994 19.8833C33.3188 20.7092 34.2833 25.2358 37.6142 24.5449Z" fill="#F5C08C"/>
<path d="M47.9533 45.5623C48.2775 45.449 48.6333 45.6201 48.7466 45.9452C48.86 46.2694 48.6888 46.6235 48.3647 46.7377C48.0397 46.8511 47.6847 46.6798 47.5714 46.3557C47.458 46.0307 47.6292 45.6756 47.9533 45.5623Z" fill="white"/>
<path d="M48.5917 47.3873C48.9158 47.2746 49.2709 47.4458 49.3842 47.7699C49.4975 48.0941 49.3271 48.4492 49.0014 48.5624C48.6773 48.6758 48.3222 48.5046 48.2089 48.1798C48.0964 47.8557 48.2675 47.5016 48.5917 47.3873Z" fill="white"/>
<path d="M49.2389 49.2411C49.563 49.1278 49.9189 49.2989 50.0314 49.6237C50.1447 49.9478 49.9735 50.3029 49.6494 50.4162C49.3253 50.5295 48.9694 50.3583 48.8569 50.0336C48.7428 49.7095 48.914 49.3543 49.2389 49.2411Z" fill="white"/>
<path d="M27.9671 19.9507V19.938C27.9917 19.5757 28.3586 19.3055 28.7866 19.334L29.5648 19.3854C29.9928 19.4133 30.3201 19.7303 30.2963 20.0924L30.2955 20.1058C30.2717 20.4689 29.9048 20.7382 29.4769 20.7097L28.6978 20.6584C28.2699 20.6305 27.9425 20.3128 27.9671 19.9507Z" fill="#3C3C3B"/>
<path d="M61.2362 23.2667C61.2228 23.2667 61.2085 23.2658 61.195 23.2651L59.2668 23.1373L59.4206 20.8288L61.3496 20.9573C61.7807 20.9858 62.1009 21.4724 62.0628 22.0439L62.047 22.2832C62.0097 22.8354 61.6515 23.2667 61.2362 23.2667Z" fill="#D2D2D1"/>
<path d="M29.5439 20.0173L29.5463 19.9807C29.6121 18.987 30.4711 18.2356 31.4649 18.3012L45.8577 19.2594L45.6152 22.8932L31.2224 21.9357C30.2286 21.8691 29.4773 21.01 29.5439 20.0173Z" fill="#E6332A"/>
<path d="M47.0811 23.2738L47.36 19.0781L58.6422 19.8294C59.1066 19.8603 59.4593 20.2622 59.4283 20.7272L59.2611 23.2381C59.2302 23.7031 58.8276 24.0551 58.3624 24.0241L47.0811 23.2738Z" fill="#E6332A"/>
<path d="M45.4978 22.8851L45.7395 19.2517L47.3594 19.078L47.0804 23.2737L45.4978 22.8851Z" fill="#F9B233"/>
<path d="M60.4263 19.9793C60.4517 19.5989 60.3209 19.224 60.0633 18.9435C59.8058 18.6614 59.4443 18.4974 59.0639 18.4884L48.9682 18.2516L48.969 18.2429C48.9912 17.9077 48.7376 17.6176 48.4015 17.5953L47.9403 17.5637C47.6764 17.547 47.4489 17.7461 47.4307 18.0098L47.4165 18.2151L47.3816 18.7565L48.9278 18.8596L59.144 19.5403C59.3429 19.553 59.4943 19.7258 59.4808 19.9245L59.2367 23.5985L60.1806 23.6614L60.4263 19.9793Z" fill="#F9B233"/>
<path d="M53.5147 40.0343L53.5115 40.0358C53.5115 40.0358 56.8345 29.054 52.3933 25.4348L50.011 25.0203C48.1938 24.7042 46.6904 23.2362 46.2284 21.3249C46.1666 21.0729 46.1135 20.8535 46.0715 20.6853L45.7719 19.4632C45.2972 17.5113 44.9786 16.1488 44.9176 15.7489C44.7099 14.4143 43.564 13.4132 42.3134 13.5218L42.265 13.528C41.0145 13.6352 40.138 14.8904 40.3622 16.3265C40.8354 19.4052 41.4725 22.4614 42.2706 25.4769L42.2738 25.4887C42.399 25.9744 42.1668 26.396 41.9655 26.836C40.7442 29.4955 40.6848 32.0727 41.1944 35.6145C41.9758 41.0432 44.8843 42.7805 44.8843 42.7805L47.6311 51.4133L56.2615 48.668L53.5147 40.0343Z" fill="#FFCF9F"/>
<path d="M45.898 50.2412L56.9218 46.8089L54.9421 40.4475L43.9167 43.8807L45.898 50.2412Z" fill="#EDEDED"/>
<path d="M49.7227 64.5127L62.0953 60.5755L57.2063 45.2104L44.8345 49.1467L49.7227 64.5127Z" fill="#3C3C3B"/>
<path d="M48.7563 54.479C48.3624 54.4725 48.0391 54.7873 48.0335 55.1801C48.0272 55.5742 48.3418 55.8984 48.7357 55.903C49.1296 55.9095 49.4529 55.5956 49.4585 55.2015C49.464 54.8087 49.1494 54.4836 48.7563 54.479Z" fill="#EDEDED"/>
<path d="M48.0559 52.2765C47.662 52.2709 47.3386 52.5854 47.3331 52.9792C47.3268 53.3724 47.6422 53.6965 48.0353 53.7021C48.4291 53.7076 48.7525 53.3931 48.758 52.9999C48.7644 52.6062 48.449 52.2827 48.0559 52.2765Z" fill="#EDEDED"/>
<path d="M47.3603 50.0932C46.9672 50.0882 46.6431 50.4021 46.6375 50.7959C46.632 51.189 46.9466 51.5132 47.3397 51.5187C47.7336 51.5243 48.0569 51.2104 48.0632 50.8166C48.0688 50.4228 47.7542 50.0993 47.3603 50.0932Z" fill="#EDEDED"/>
<path d="M9.63718 11.1754V9.52605C9.63718 9.04127 9.3281 8.61308 8.86527 8.46107L8.04899 8.0924L7.36584 7.72095L7.17088 7.6138L6.98939 7.48875L6.98701 7.49088L6.98386 7.01633L6.99336 7.00611C7.10114 6.88073 7.21685 6.71446 7.36742 6.49407C7.49422 6.30711 7.59408 6.02815 7.66937 5.67525L7.69712 5.68333L7.7938 5.67311C7.92932 5.62136 7.98638 5.42886 8.026 5.18088C8.07593 4.8741 8.04739 4.60077 7.87779 4.57287L7.9309 3.86056C7.94517 3.48967 7.80489 3.12995 7.5505 2.8597C7.18198 2.469 6.81346 2.34212 6.07642 2.34212H6.07406C5.33782 2.34212 4.9693 2.469 4.60078 2.8597C4.34639 3.12995 4.20611 3.48967 4.22037 3.86056L4.27346 4.57287C4.10387 4.60077 4.07535 4.8741 4.12528 5.18088C4.1649 5.42886 4.22196 5.62136 4.35668 5.67311L4.45337 5.68333L4.4819 5.67525C4.5564 6.02815 4.65547 6.30711 4.78386 6.49407C4.93364 6.71446 5.05013 6.88073 5.15712 7.00611L5.16821 7.01728L5.16583 7.49088L5.16268 7.48875L4.98119 7.6138L4.78701 7.72095L4.10308 8.0924L3.2868 8.46107C2.82397 8.61308 2.51489 9.04127 2.51489 9.52605V11.1754H9.63718Z" fill="#E6332A"/>
<path d="M9.63718 20.9746V19.3261C9.63718 18.8413 9.3281 18.4132 8.86527 18.2612L8.04899 17.8925L7.36584 17.5201L7.17088 17.4139L6.98939 17.2888L6.98701 17.2904L6.98386 16.8164L6.99336 16.8053C7.10114 16.6808 7.21685 16.5146 7.36742 16.2933C7.49422 16.1072 7.59408 15.8273 7.66937 15.4747L7.69712 15.4834L7.7938 15.4722C7.92932 15.4209 7.98638 15.2289 8.026 14.9809C8.07593 14.6742 8.04739 14.4008 7.87779 14.3729L7.9309 13.6606C7.94517 13.2888 7.80489 12.93 7.5505 12.6598C7.18198 12.2691 6.81346 12.1422 6.07642 12.1422H6.07406C5.33782 12.1422 4.9693 12.2691 4.60078 12.6598C4.34639 12.93 4.20611 13.2888 4.22037 13.6606L4.27346 14.3729C4.10387 14.4008 4.07535 14.6742 4.12528 14.9809C4.1649 15.2289 4.22196 15.4209 4.35668 15.4722L4.45337 15.4834L4.4819 15.4747C4.5564 15.8273 4.65547 16.1072 4.78386 16.2933C4.93364 16.5146 5.05013 16.6808 5.15712 16.8053L5.16821 16.817L5.16583 17.2904L5.16268 17.2888L4.98119 17.4139L4.78701 17.5201L4.10308 17.8925L3.2868 18.2612C2.82397 18.4132 2.51489 18.8413 2.51489 19.3261V20.9746H9.63718Z" fill="#00ABA3"/>
<path d="M9.63718 30.7748V29.1263C9.63718 28.6415 9.3281 28.2134 8.86527 28.0614L8.04899 27.6926L7.36584 27.3202L7.17088 27.214L6.98939 27.0881L6.98701 27.0906L6.98386 26.6157L6.99336 26.6063C7.10114 26.4804 7.21685 26.3145 7.36742 26.0934C7.49422 25.9074 7.59408 25.6275 7.66937 25.2749L7.69712 25.2836L7.7938 25.2724C7.92932 25.2217 7.98638 25.0291 8.026 24.7802C8.07593 24.4737 8.04739 24.201 7.87779 24.1731L7.9309 23.4608C7.94517 23.089 7.80489 22.7293 7.5505 22.459C7.18198 22.0684 6.81346 21.9424 6.07642 21.9424H6.07406C5.33782 21.9424 4.9693 22.0684 4.60078 22.459C4.34639 22.7293 4.20611 23.089 4.22037 23.4608L4.27346 24.1731C4.10387 24.201 4.07535 24.4737 4.12528 24.7802C4.1649 25.0291 4.22196 25.2217 4.35668 25.2724L4.45337 25.2836L4.4819 25.2749C4.5564 25.6275 4.65547 25.9074 4.78386 26.0934C4.93364 26.3145 5.05013 26.4804 5.15712 26.6063L5.16821 26.6166L5.16583 27.0906L5.16268 27.0881L4.98119 27.214L4.78701 27.3202L4.10308 27.6926L3.2868 28.0614C2.82397 28.2134 2.51489 28.6415 2.51489 29.1263V30.7748H9.63718Z" fill="#D1A772"/>
<path d="M9.63718 40.4301V38.7816C9.63718 38.2965 9.3281 37.8687 8.86527 37.7163L8.04899 37.347L7.36584 36.9755L7.17088 36.8693L6.98939 36.7439L6.98701 36.7455L6.98386 36.2715L6.99336 36.2607C7.10114 36.1362 7.21685 35.9697 7.36742 35.7487C7.49422 35.5617 7.59408 35.2825 7.66937 34.9299L7.69712 34.9379L7.7938 34.9277C7.92932 34.876 7.98638 34.6844 8.026 34.4361C8.07593 34.1296 8.04739 33.856 7.87779 33.8284L7.9309 33.1158C7.94517 32.7443 7.80489 32.3843 7.5505 32.1143C7.18198 31.7243 6.81346 31.5973 6.07642 31.5973H6.07406C5.33782 31.5973 4.9693 31.7243 4.60078 32.1143C4.34639 32.3843 4.20611 32.7443 4.22037 33.1158L4.27346 33.8284C4.10387 33.856 4.07535 34.1296 4.12528 34.4361C4.1649 34.6844 4.22196 34.876 4.35668 34.9277L4.45337 34.9379L4.4819 34.9299C4.5564 35.2825 4.65547 35.5617 4.78386 35.7487C4.93364 35.9697 5.05013 36.1362 5.15712 36.2607L5.16821 36.2725L5.16583 36.7455L5.16268 36.7439L4.98119 36.8693L4.78701 36.9755L4.10308 37.347L3.2868 37.7163C2.82397 37.8687 2.51489 38.2965 2.51489 38.7816V40.4301H9.63718Z" fill="#205887"/>
<path d="M11.0161 5.39465H20.9225V4.23838H11.0161V5.39465Z" fill="#B2B2B2"/>
<path d="M11.0161 7.32202H20.9225V6.16488H11.0161V7.32202Z" fill="#B2B2B2"/>
<path d="M11.0161 9.24805H20.9225V8.09091H11.0161V9.24805Z" fill="#B2B2B2"/>
<path d="M11.0161 11.1754H20.9225V10.0183H11.0161V11.1754Z" fill="#B2B2B2"/>
<path d="M11.0161 15.1947H20.9225V14.0379H11.0161V15.1947Z" fill="#B2B2B2"/>
<path d="M11.0161 17.1216H20.9225V15.965H11.0161V17.1216Z" fill="#B2B2B2"/>
<path d="M11.0161 19.0487H20.9225V17.8918H11.0161V19.0487Z" fill="#B2B2B2"/>
<path d="M11.0161 20.9746H20.9225V19.8177H11.0161V20.9746Z" fill="#B2B2B2"/>
<path d="M11.0161 24.9945H20.9225V23.8379H11.0161V24.9945Z" fill="#B2B2B2"/>
<path d="M11.0161 26.9216H20.9225V25.7647H11.0161V26.9216Z" fill="#B2B2B2"/>
<path d="M11.0161 28.8485H20.9225V27.6923H11.0161V28.8485Z" fill="#B2B2B2"/>
<path d="M11.0161 30.7748H20.9225V29.6179H11.0161V30.7748Z" fill="#B2B2B2"/>
<path d="M11.0161 34.7954H20.9225V33.6382H11.0161V34.7954Z" fill="#B2B2B2"/>
<path d="M11.0161 36.7208H20.9225V35.5646H11.0161V36.7208Z" fill="#B2B2B2"/>
<path d="M11.0161 38.6483H20.9225V37.4911H11.0161V38.6483Z" fill="#B2B2B2"/>
<path d="M11.0161 40.5748H20.9225V39.4186H11.0161V40.5748Z" fill="#B2B2B2"/>
</svg>
