<svg width="60" height="69" viewBox="0 0 60 69" fill="none" xmlns="http://www.w3.org/2000/svg">
<path d="M58.993 27.6111C58.993 42.8613 46.6308 55.2236 31.3812 55.2236C16.132 55.2236 3.76929 42.8613 3.76929 27.6111C3.76929 12.362 16.132 -0.000305176 31.3812 -0.000305176C46.6308 -0.000305176 58.993 12.362 58.993 27.6111Z" fill="#F2F2F2"/>
<path d="M23.7716 66.8549L15.6026 34.5063L16.7442 27.2484L19.5238 41.5316L22.7097 42.7574L19.1769 24.2937C18.6967 21.785 16.502 19.9714 13.9483 19.9714H13.2338V17.3518L17.6455 17.9027C17.6455 17.9027 17.1085 13.2144 16.257 11.7967C15.0312 9.75418 13.0712 8.85632 11.6012 8.85632C11.5277 8.85632 11.462 8.89211 11.3963 8.93264C11.3312 8.89211 11.2645 8.85632 11.1914 8.85632C9.72147 8.85632 7.35203 9.75417 6.37167 11.6333C5.60686 13.0999 5.14668 17.9027 5.14668 17.9027L9.47597 17.3518V19.9714H8.76198C6.2077 19.9714 4.01348 21.785 3.53282 24.2937L0 42.7574L3.18582 41.5316L6.07635 26.626L7.16578 34.4252H7.10712L0.571949 66.8549H4.9832V67.9995H10.8643V66.8549H14.0502V67.9995H19.9323V66.8549H23.7716Z" fill="#77D0DE"/>
<path d="M59.204 43.2474V21.2175C59.204 17.6392 56.3023 14.7382 52.7224 14.7382H51.2385V12.6325C52.8449 11.6977 53.8444 9.83644 53.4336 7.76294C53.0871 6.01375 51.6874 4.5877 49.9423 4.22165C46.9832 3.60162 44.3769 5.84325 44.3769 8.69298C44.3769 10.3814 45.3024 11.8408 46.6643 12.6325V14.7382H45.1803C41.6009 14.7382 38.6997 17.6392 38.6997 21.2175V43.2474L42.049 41.5316V25.8211L43.5194 35.7964V41.7761V64.8338H41.4566V67.9375H48.4821L48.5022 41.7761H49.4825V67.9995H56.5076V64.8946H54.6287V35.7964L55.8542 27.4845V41.5316L59.204 43.2474Z" fill="#2C353D"/>
<path d="M41.2147 41.9526L38.7001 43.2474L38.7871 46.2713L35.2012 48.2887H32.2627V47.3921C33.5371 46.9139 34.4481 45.6954 34.4481 44.2538C34.4481 42.3973 32.9431 40.8914 31.0857 40.8914C29.2292 40.8914 27.7238 42.3973 27.7238 44.2538C27.7238 45.7025 28.6452 46.9271 29.9302 47.3992V48.2887H27.1184L23.3112 46.2081L22.7099 42.7574L20.1594 41.7952L20.9153 47.3432L27.0094 51.3197V59.5088H27.0304V68.083H30.4345V59.5088H31.7583V68.083H35.2254V59.5088H35.2464L35.2887 51.4401L41.4037 47.3432L41.2147 41.9526Z" fill="#F9BB4E"/>
<path d="M25.4551 66.3815H30.4354V68.083H25.4551V66.3815Z" fill="#FECA5C"/>
<path d="M31.79 66.3815H36.7699V68.083H31.79V66.3815Z" fill="#FECA5C"/>
<path d="M16.7444 27.2484L19.524 41.5316L20.7364 41.9978L17.3489 24.2937C16.8687 21.785 14.6741 19.9703 12.1203 19.9703H11.9004V17.3518H13.234L15.7895 17.6702C15.6698 16.7151 15.1677 13.0272 14.4291 11.7967C13.3877 10.0618 11.8184 9.15918 10.4677 8.92548C9.03318 9.1568 7.20458 10.0391 6.37184 11.6333C5.70763 12.9067 5.24979 16.9262 5.14685 17.9027L9.47614 17.3518V19.9703H8.76216C6.20787 19.9703 4.01365 21.785 3.53299 24.2937L0.14502 41.9978L3.26424 40.598L5.01411 32.106L6.07652 26.626L7.16595 34.4252L7.10729 34.424L0.572121 66.8549H3.15525H4.98337V67.9995H9.0364V66.8549H10.8645H12.2223H14.0504V67.9995H18.1044V66.8549H19.9325H21.9436L14.3057 34.3489L16.7444 27.2484Z" fill="#92E0EA"/>
<path d="M52.6241 64.8946V35.7964L55.8542 27.4845V41.5316L57.6045 42.4259V21.6241C57.6045 18.0446 53.9064 14.7382 50.3274 14.7382H49.7877V12.6325C51.3941 11.6977 52.3419 9.63733 51.9307 7.56382C51.5985 5.88499 50.1024 4.41243 47.7499 4.28127C45.8072 4.80948 44.3769 6.58251 44.3769 8.69298C44.3769 10.3814 45.3024 11.8408 46.6643 12.6325V14.7382H45.1803C41.6009 14.7382 38.6997 17.6392 38.6997 21.2175V43.2474L41.124 42.005L42.049 41.5316V25.8211L43.5194 35.7964V41.7761V64.8338H41.4566V67.9375H48.4821L48.5022 41.7761H49.4825V67.9995H53.4439V64.8946H52.6241Z" fill="#353F49"/>
<path d="M33.797 59.5088L33.8384 51.4401L39.9534 47.3432L39.7904 42.6858L38.7001 43.2474L38.7871 46.2713L35.2012 48.2887H33.7508H32.2627H31.3172V47.3921C32.5915 46.9139 32.9986 45.6954 32.9986 44.2538C32.9986 42.6465 31.8687 41.3063 30.361 40.9748C28.8538 41.3063 27.7238 42.6465 27.7238 44.2538C27.7238 45.7025 28.6452 46.9271 29.9302 47.3992V48.2887H28.4807H27.1184H25.6685L21.8608 46.2081L21.6088 42.11L20.1594 41.7952L20.9153 47.3432L27.0094 51.3197V59.5088H27.0304V68.083H28.9846V59.5088H30.3089V68.083H30.4345V59.5088H31.7583V68.083H33.776V59.5088H33.797Z" fill="#FECA5C"/>
</svg>
