<svg width="64" height="55" viewBox="0 0 64 55" fill="none" xmlns="http://www.w3.org/2000/svg">
<path d="M43.9205 0C39.3975 0 35.23 1.5163 31.8907 4.06215C28.5523 1.5163 24.383 0 19.8591 0C8.8911 0 0 8.89193 0 19.8602C0 35.7137 31.8907 54.8984 31.8907 54.8984C31.8907 54.8967 63.7823 35.7154 63.7823 19.8602C63.7823 8.89193 54.8894 0 43.9205 0Z" fill="#F96544"/>
<path d="M43.9204 0C39.3975 0 35.2299 1.5163 31.8906 4.06215V54.8984C31.8906 54.8967 63.7823 35.7154 63.7823 19.8602C63.7823 8.89193 54.8893 0 43.9204 0Z" fill="#E44D24"/>
<path d="M62.5525 25.5504H47.3428L43.539 17.6594L37.9423 31.5353L31.8921 11.7239L25.8411 31.5353L20.2435 17.6594L16.4397 25.5504H1.22998C1.59002 26.4361 2.02336 27.3239 2.51532 28.209H18.1107L20.0273 24.2356L26.1883 39.5085L31.8921 20.8341L37.5951 39.5085L43.7552 24.2356L45.6717 28.209H61.2699C61.7619 27.3239 62.1943 26.4361 62.5525 25.5504Z" fill="white"/>
</svg>
