<svg width="71" height="48" viewBox="0 0 71 48" fill="none" xmlns="http://www.w3.org/2000/svg">
<path d="M23.0566 17.5505H31.6163L36.6534 10.3232C37.1682 9.58549 37.8684 8.99636 38.6831 8.6145L46.3573 5.02594C47.9366 4.2858 49.8129 5.01167 50.4863 6.61998C51.0975 8.08042 50.4973 9.76656 49.0993 10.5114C47.0017 11.6286 44.3271 13.0558 44.3271 13.0558V15.0049C44.3271 16.2732 45.355 17.3015 46.6233 17.3015H63.764C64.8947 17.3015 65.8114 18.2183 65.8114 19.3489V21.8519H66.2001C67.5952 21.8519 68.7263 22.9822 68.7263 24.3778V25.3878C68.7263 26.7838 67.5952 27.9141 66.2001 27.9141V30.397C66.2001 31.3909 65.3952 32.1954 64.4021 32.1954H63.5754V33.251C63.5754 34.7932 62.3245 36.0444 60.7814 36.0444H39.5118C38.2032 36.0444 36.9361 35.5867 35.9292 34.7517L31.5119 31.0891H23.9312L23.0566 17.5505Z" fill="#FCDC97"/>
<path d="M68.6944 23.9775C68.5026 22.773 67.4589 21.8522 66.2001 21.8522H65.8114V19.3492C65.8114 18.2186 64.8947 17.3017 63.764 17.3017H46.6233C45.355 17.3017 44.3271 16.2734 44.3271 15.0052V13.0561C44.3271 13.0561 47.0017 11.6288 49.0993 10.5116C50.4973 9.7668 51.0975 8.08066 50.4863 6.62021C49.8129 5.0119 47.9366 4.28603 46.3573 5.02617L38.6831 8.61474C37.8684 8.9966 37.1682 9.58574 36.6534 10.3234L31.6163 17.5508H23.0566L23.4718 23.9775H68.6944Z" fill="#FCE5AC"/>
<path d="M20.7486 23.9775H0V14.913H20.7486V23.9775Z" fill="#004592"/>
<path d="M20.7486 32.9263H0V23.8629H20.7486V32.9263Z" fill="#002541"/>
<path d="M25.782 23.8628H14.7336V13.0658H25.782V23.8628Z" fill="#FDC00E"/>
<path d="M69.9374 12.2351C70.0268 12.4495 70.0279 12.6914 69.9398 12.9069L56.1102 46.7118C55.9931 46.9973 55.744 47.1874 55.4629 47.242C55.3012 47.2736 55.1284 47.2582 54.9648 47.1926L45.2871 43.2332L44.9693 43.1027L37.9507 40.2313C37.7348 40.1424 37.5636 39.9731 37.4739 39.7577C37.383 39.5434 37.3818 39.3014 37.4703 39.0855L48.9943 10.9183L49.0583 10.7645L51.3003 5.28097C51.4834 4.83271 51.9969 4.61916 52.4457 4.80104L69.4594 11.7624C69.6753 11.8505 69.8472 12.0194 69.9374 12.2351Z" fill="#4FC2D9"/>
<path d="M61.9292 24.0481C60.6668 22.2062 58.6426 20.6465 56.2295 19.6597C53.825 18.6749 51.2995 18.3673 49.1136 18.7904C49.1053 18.7912 49.0966 18.7923 49.0883 18.7943C46.7636 19.2518 45.085 20.4765 44.3619 22.2433C43.6388 24.0105 43.9781 26.06 45.3162 28.0153C46.5778 29.8573 48.602 31.4162 51.0156 32.4038C53.4197 33.3866 55.946 33.6961 58.1318 33.2731C58.1401 33.2711 58.1484 33.2692 58.1571 33.268C60.4818 32.8117 62.16 31.5869 62.8832 29.8201C63.6062 28.0529 63.2675 26.0023 61.9292 24.0481Z" fill="#80C3CE"/>
<path d="M55.7661 27.3062C55.5344 27.8059 55.2197 28.2503 54.822 28.6389L53.6632 28.164C53.9107 27.9506 54.1456 27.7047 54.3661 27.4263C54.5884 27.1472 54.7477 26.8871 54.8458 26.6483C54.9267 26.4506 54.9616 26.296 54.9516 26.1846C54.9414 26.0731 54.8805 25.9944 54.7691 25.9489C54.6923 25.9173 54.6141 25.9236 54.533 25.9679C54.4524 26.0125 54.3472 26.0984 54.216 26.2249C54.0851 26.3526 53.9186 26.5277 53.7155 26.7523C53.4849 27.0033 53.2647 27.1907 53.054 27.316C52.8441 27.4425 52.6377 27.5126 52.4353 27.5256C52.2329 27.5398 52.006 27.4943 51.7545 27.3919C51.3707 27.2349 51.1212 26.9891 51.0057 26.6542C50.8903 26.3194 50.908 25.8939 51.0583 25.38L50.5803 25.1848L50.8761 24.462L51.3469 24.6541C51.5615 24.2019 51.8668 23.782 52.2613 23.3942L53.0861 24.2169C52.6682 24.6138 52.3795 25.0076 52.2194 25.3994C52.1435 25.5844 52.1127 25.7251 52.1269 25.8192C52.1416 25.9134 52.193 25.9781 52.2815 26.0146C52.3582 26.0457 52.433 26.0438 52.5053 26.0106C52.5776 25.9762 52.6721 25.9043 52.7887 25.7939C52.9062 25.6844 53.054 25.5267 53.2335 25.3211C53.6047 24.9052 53.9432 24.636 54.2504 24.5147C54.5563 24.3932 54.8833 24.4023 55.2297 24.5439C55.6206 24.704 55.8875 24.9577 56.0302 25.3049C56.1737 25.6533 56.1769 26.0762 56.0404 26.5752L56.7142 26.8495L56.4189 27.5722L55.7661 27.3062Z" fill="#002541"/>
<path d="M40.335 34.406C40.1195 34.3178 39.8775 34.319 39.6632 34.4091C39.4482 34.4989 39.2781 34.6712 39.1896 34.8867L37.4715 39.0869C37.3837 39.3023 37.3844 39.5435 37.4742 39.759C37.5644 39.9733 37.7363 40.1436 37.9518 40.2314L42.1524 41.95C42.316 42.018 42.4884 42.031 42.6505 41.9998C42.9316 41.9448 43.1807 41.7546 43.2968 41.4704C44.4275 38.7053 43.0992 35.5363 40.335 34.406Z" fill="#80C3CE"/>
<path d="M56.6468 6.51902L52.4462 4.8012C52.2307 4.71224 51.9887 4.71426 51.7745 4.80444C51.5598 4.89452 51.3894 5.06576 51.3012 5.28114L49.5831 9.48131C49.3992 9.93047 49.6143 10.4428 50.063 10.6271C51.0498 11.0307 52.109 11.1331 53.1317 10.9359C53.497 10.8646 53.8571 10.7555 54.2082 10.6089C55.5425 10.0491 56.5788 9.00461 57.1271 7.66471C57.2149 7.44883 57.2136 7.20694 57.1239 6.99268C57.0342 6.77801 56.8622 6.60677 56.6468 6.51902Z" fill="#80C3CE"/>
<path d="M57.3496 41.3673C56.0106 40.8185 54.5383 40.8257 53.204 41.3855C51.8697 41.9441 50.833 42.9906 50.2855 44.3296C50.1021 44.778 50.3168 45.2899 50.7654 45.4742L54.966 47.1927C55.1253 47.2576 55.2985 47.2738 55.4654 47.2422C55.5243 47.2303 55.582 47.2141 55.6381 47.1896C55.8528 47.0994 56.0228 46.9275 56.1114 46.712L57.8295 42.5118C57.9173 42.2964 57.9166 42.0544 57.8264 41.8397C57.7366 41.6251 57.565 41.455 57.3496 41.3673Z" fill="#80C3CE"/>
<path d="M69.9367 12.2353C69.847 12.0206 69.6754 11.8495 69.4599 11.7613L65.2594 10.0439C64.8107 9.85972 64.2983 10.0744 64.1145 10.5238C62.9838 13.2878 64.3125 16.4564 67.0764 17.5871C67.2357 17.652 67.4088 17.669 67.5757 17.6366C67.6346 17.6255 67.6923 17.6085 67.7485 17.584C67.9632 17.4938 68.1332 17.3231 68.2217 17.1064L69.9399 12.907C70.028 12.6915 70.0269 12.4497 69.9367 12.2353Z" fill="#80C3CE"/>
<path d="M25.782 34.6599H14.7336V23.8629H25.782V34.6599Z" fill="#F99C1D"/>
<path d="M68.6578 7.49934C68.7476 7.7141 68.7484 7.95478 68.6598 8.17066L54.8306 41.9773C54.714 42.2619 54.4649 42.452 54.1838 42.5066C54.0217 42.5383 53.8493 42.524 53.6857 42.4572L44.0076 38.4978L43.6897 38.3673L36.6715 35.4959C36.4553 35.407 36.2844 35.2378 36.1943 35.0235C36.103 34.8087 36.1026 34.5656 36.1911 34.3514L47.7148 6.18291L47.7787 6.02786L50.0212 0.545578C50.2042 0.0973244 50.7174 -0.116631 51.1661 0.0668602L68.1795 7.0269C68.3953 7.11394 68.5681 7.28397 68.6578 7.49934Z" fill="#96E0F4"/>
<path d="M60.6495 19.3127C59.3879 17.4696 57.3637 15.9112 54.9501 14.9232C52.546 13.9403 50.0201 13.6315 47.8339 14.0546C47.8259 14.0569 47.8172 14.0577 47.8086 14.0597C45.4843 14.5152 43.8061 15.7399 43.083 17.5079C42.3595 19.2751 42.6983 21.3246 44.0374 23.28C45.2989 25.122 47.3231 26.6804 49.7366 27.6684C52.1408 28.6519 54.6666 28.9599 56.8529 28.5378C56.8608 28.5357 56.8695 28.5337 56.8774 28.5326C59.2021 28.0764 60.8812 26.8515 61.6038 25.0843C62.3269 23.3175 61.9877 21.268 60.6495 19.3127Z" fill="#4FC2D9"/>
<path d="M54.4865 22.5704C54.2549 23.0705 53.9397 23.5137 53.542 23.9023L52.3836 23.4299C52.6316 23.2164 52.8656 22.9693 53.087 22.6898C53.3084 22.4114 53.4681 22.1525 53.5665 21.9126C53.6468 21.7152 53.6823 21.5603 53.6721 21.448C53.6622 21.3377 53.6014 21.2591 53.4898 21.2131C53.4131 21.182 53.3341 21.189 53.2534 21.2338C53.1727 21.278 53.0672 21.363 52.9363 21.4895C52.8058 21.6172 52.6386 21.7923 52.4354 22.0169C52.2058 22.2668 51.9855 22.4562 51.7748 22.5815C51.5645 22.7072 51.3586 22.7772 51.1557 22.791C50.9533 22.8032 50.7263 22.7586 50.4753 22.6566C50.091 22.4996 49.8415 22.2525 49.7262 21.9176C49.6111 21.5828 49.6281 21.1586 49.7787 20.6446L49.3008 20.4494L49.596 19.7267L50.0677 19.92C50.2824 19.4666 50.5868 19.0462 50.9818 18.6596L51.8064 19.4815C51.3889 19.8793 51.1004 20.2723 50.9403 20.6637C50.8644 20.8499 50.8335 20.9898 50.8478 21.0839C50.8619 21.178 50.9133 21.2428 51.0019 21.2792C51.0786 21.3104 51.1533 21.3097 51.2261 21.2749C51.298 21.2404 51.3925 21.1689 51.5096 21.0594C51.6266 20.9491 51.7744 20.7913 51.9539 20.5849C52.3255 20.1699 52.664 19.9006 52.9703 19.7781C53.2768 19.6567 53.6033 19.6678 53.9504 19.8085C54.341 19.9694 54.6083 20.2224 54.751 20.5695C54.8937 20.9178 54.8972 21.3408 54.7613 21.8398L55.435 22.115L55.1392 22.8376L54.4865 22.5704Z" fill="#002541"/>
<path d="M39.0555 29.6705C38.84 29.5835 38.5982 29.5842 38.3835 29.6732C38.1691 29.7634 37.9992 29.9353 37.9106 30.1512L36.1924 34.3514C36.1039 34.5656 36.1055 34.8088 36.1953 35.0235C36.2853 35.2378 36.4566 35.4077 36.6719 35.496L40.8725 37.2153C41.0366 37.2813 41.2093 37.2956 41.3707 37.2639C41.6521 37.2105 41.9012 37.0192 42.0179 36.735C43.1486 33.9706 41.8198 30.802 39.0555 29.6705Z" fill="#4FC2D9"/>
<path d="M55.3669 1.7844L51.1664 0.0657706C50.9509 -0.0223823 50.7094 -0.0211658 50.4943 0.0677972C50.28 0.157873 50.11 0.329926 50.0215 0.545704L48.3033 4.74668C48.1199 5.19504 48.3349 5.70817 48.7836 5.89045C49.7704 6.29528 50.8287 6.3977 51.8524 6.20004C52.2172 6.1292 52.5778 6.02009 52.9288 5.87304C54.2632 5.31366 55.2993 4.26797 55.8469 2.92887C55.9354 2.7134 55.9343 2.47151 55.8441 2.25796C55.754 2.04249 55.5824 1.87255 55.3669 1.7844Z" fill="#4FC2D9"/>
<path d="M56.0686 36.6305C54.7291 36.083 53.2568 36.0901 51.9233 36.6495C50.589 37.2093 49.5524 38.255 49.0045 39.5929C48.821 40.0424 49.0361 40.5544 49.4848 40.7386L53.6854 42.456C53.8447 42.522 54.0179 42.5383 54.1839 42.5058C54.2428 42.4943 54.3014 42.4773 54.357 42.4541C54.5717 42.3639 54.7417 42.193 54.8299 41.9773L56.5489 37.7763C56.6367 37.5604 56.6358 37.3188 56.5457 37.1042C56.456 36.8895 56.2836 36.7195 56.0686 36.6305Z" fill="#4FC2D9"/>
<path d="M68.6575 7.49936C68.5678 7.28399 68.3953 7.11395 68.1803 7.0258L63.9801 5.30717C63.5314 5.1253 63.0183 5.33885 62.8352 5.78791C61.7041 8.55223 63.0325 11.7209 65.7972 12.8516C65.9565 12.9173 66.1297 12.9335 66.296 12.9011C66.355 12.8887 66.4132 12.8725 66.4688 12.8484C66.6835 12.7595 66.8535 12.5871 66.9417 12.3717L68.6607 8.17068C68.7484 7.9548 68.7476 7.71412 68.6575 7.49936Z" fill="#4FC2D9"/>
<path d="M44.3263 13.0558C44.3263 13.0558 47.0009 11.6286 49.0985 10.5114C50.4965 9.76656 51.0967 8.08042 50.4855 6.61998C49.8121 5.01167 47.9358 4.2858 46.3565 5.02594L38.6823 8.6145C37.8676 8.99636 37.1674 9.5855 36.6526 10.3232L31.6155 17.5505L44.3263 13.0558Z" fill="#FCE5AC"/>
</svg>
