<svg width="65" height="50" viewBox="0 0 65 50" fill="none" xmlns="http://www.w3.org/2000/svg">
<path d="M4.34473 49.2627L1.0177 48.4596L0 44.9172L26.1544 18.7629L30.4998 23.1083L4.34473 49.2627Z" fill="#2C353D"/>
<path d="M28.3195 26.4355L22.8279 20.9429L28.104 15.6657L33.5956 21.1584L28.3195 26.4355Z" fill="#353F49"/>
<path d="M36.9312 28.8511L20.4124 12.3322L29.1301 3.6134L45.6489 20.1322L36.9312 28.8511Z" fill="#2C353D"/>
<path d="M21.8224 15.8079L16.7971 10.7826L27.5809 -0.00011158L32.6051 5.02406L21.8224 15.8079Z" fill="#2C353D"/>
<path d="M38.4785 32.4641L33.4543 27.44L44.2371 16.6572L49.2623 21.6814L38.4785 32.4641Z" fill="#2C353D"/>
<path d="M38.8741 22.0759L27.1736 10.3743L30.9015 6.64641L42.602 18.3469L38.8741 22.0759Z" fill="#353F49"/>
<path d="M37.1524 15.4221L30.3838 8.65354L30.8438 8.19465L37.6112 14.9632L37.1524 15.4221Z" fill="white"/>
<path d="M24.5337 21.2732L24.1316 20.8711L26.025 18.9788L26.426 19.3798L24.5337 21.2732Z" fill="white"/>
<path d="M21.8394 12.6118L18.4053 9.1766L27.5819 -5.72205e-05L31.0161 3.43409L21.8394 12.6118Z" fill="#353F49"/>
<path d="M38.5872 29.3604L36.0708 26.8429L45.2474 17.6663L47.7638 20.1826L38.5872 29.3604Z" fill="#353F49"/>
<path d="M24.5345 5.6709L24.1614 5.29883L27.8614 1.59987L28.2335 1.97193L24.5345 5.6709Z" fill="white"/>
<path d="M43.1181 21.7886L42.7739 21.4444L45.2399 18.9784L45.5841 19.3226L43.1181 21.7886Z" fill="white"/>
<path d="M0 44.9176L1.0177 48.46L2.12674 48.728L25.1937 25.6604L22.2249 22.6927L0 44.9176Z" fill="#353F49"/>
<path d="M58.3526 39.0313H37.1152V45.8459H58.3526V39.0313Z" fill="#FECA5C"/>
<path d="M60.6233 45.521H34.8442V49.176H60.6233V45.521Z" fill="#F9BB4E"/>
<path d="M47.4107 31.4511L48.0776 28.9722L48.7445 31.4511L51.2233 32.1179L48.7445 32.7859L48.0776 35.2637L47.4107 32.7859L44.9319 32.1179L47.4107 31.4511Z" fill="#92E0EA"/>
<path d="M52.1875 41.1401H38.5603V40.3285H52.1875V41.1401Z" fill="white"/>
<path d="M63.908 37.1699L57.7195 35.2175L57.9146 34.5978L64.1031 36.5513L63.908 37.1699Z" fill="#2C353D"/>
<path d="M62.5184 26.7291L56.7158 29.6335L56.4253 29.0535L62.2289 26.149L62.5184 26.7291Z" fill="#2C353D"/>
<path d="M55.9017 19.0976L52.9694 24.8862L52.3904 24.5935L55.3238 18.8049L55.9017 19.0976Z" fill="#2C353D"/>
</svg>
