<svg width="65" height="62" viewBox="0 0 65 62" fill="none" xmlns="http://www.w3.org/2000/svg">
<path d="M61.9145 53.3606H6.53628C5.15487 53.3606 4.03467 52.2404 4.03467 50.859V11.0407H6.53628H61.9145H64.4162V50.859C64.4162 52.2404 63.296 53.3606 61.9145 53.3606Z" fill="#424242"/>
<path d="M63.0368 42.9824C63.0368 42.9824 41.627 42.1451 34.2254 42.1451C26.8238 42.1451 5.41401 42.9824 5.41401 42.9824C4.65207 42.9824 4.03467 42.364 4.03467 41.602V40.0007C4.03467 39.2388 4.65207 38.6214 5.41401 38.6214H63.0368C63.7988 38.6214 64.4162 39.2388 64.4162 40.0007V41.602C64.4162 42.364 63.7988 42.9824 63.0368 42.9824Z" fill="#282828"/>
<path d="M61.9145 41.7498H6.53628C5.15487 41.7498 4.03467 40.9362 4.03467 39.9337V11.0407H6.53628H61.9145H64.4162V39.9337C64.4162 40.9362 63.296 41.7498 61.9145 41.7498Z" fill="#424242"/>
<path d="M34.4033 45.6379H34.0492C32.7545 45.6379 31.7065 44.589 31.7065 43.2953V40.2031C31.7065 38.9095 32.7545 37.8605 34.0492 37.8605H34.4033C35.6969 37.8605 36.7459 38.9095 36.7459 40.2031V43.2953C36.7459 44.589 35.6969 45.6379 34.4033 45.6379Z" fill="#F8CA00"/>
<path d="M34.3646 44.8162H34.0858C33.0657 44.8162 32.2388 43.9892 32.2388 42.9681V40.5295C32.2388 39.5094 33.0657 38.6824 34.0858 38.6824H34.3646C35.3857 38.6824 36.2126 39.5094 36.2126 40.5295V42.9681C36.2126 43.9892 35.3857 44.8162 34.3646 44.8162Z" fill="#E97F02"/>
<path d="M34.4033 45.6379H34.0492C32.7545 45.6379 31.7065 44.589 31.7065 43.2953V40.2031C31.7065 38.9095 32.7545 37.8605 34.0492 37.8605H34.4033C35.6969 37.8605 36.7459 38.9095 36.7459 40.2031V43.2953C36.7459 44.589 35.6969 45.6379 34.4033 45.6379Z" fill="#F8CA00"/>
<path d="M34.8219 44.8162H33.6284C32.8613 44.8162 32.2388 44.1936 32.2388 43.4255V40.0731C32.2388 39.305 32.8613 38.6824 33.6284 38.6824H34.2252H34.8219C35.5901 38.6824 36.2126 39.305 36.2126 40.0731V43.4255C36.2126 44.1936 35.5901 44.8162 34.8219 44.8162Z" fill="#E97F02"/>
<path d="M34.8228 44.8162H34.2261V38.6824H34.8228C35.591 38.6824 36.2135 39.305 36.2135 40.0731V43.4255C36.2135 44.1936 35.591 44.8162 34.8228 44.8162Z" fill="#EF9F50"/>
<path d="M24.516 11.0408H21.8792V6.93474H24.516V11.0408Z" fill="#F8CA00"/>
<path d="M24.5164 11.0408H23.198V6.93474H24.5164V11.0408Z" fill="#FCE172"/>
<path d="M46.5726 11.0408H43.9233V6.93474H46.5726V11.0408Z" fill="#F8CA00"/>
<path d="M46.5729 11.0408H45.2483V6.93474H46.5729V11.0408Z" fill="#FCE172"/>
<path d="M24.5243 3.99028C24.5243 3.24898 25.1272 2.64604 25.8685 2.64604H42.5817C43.323 2.64604 43.926 3.24898 43.926 3.99028V6.93481H46.5721V3.99028C46.5721 1.79014 44.7819 -0.000108242 42.5817 -0.000108242H25.8685C23.6684 -0.000108242 21.8792 1.79014 21.8792 3.99028V6.93481H24.5243V3.99028Z" fill="#556270"/>
<path d="M34.2261 2.64604H42.5827C43.324 2.64604 43.9269 3.24898 43.9269 3.99028V6.93481H46.5731V3.99028C46.5731 1.79014 44.7828 -0.000108242 42.5827 -0.000108242H34.2261V2.64604Z" fill="#687989"/>
<path d="M23.897 60.6218L0 61.7637L0.972555 27.503H23.897V60.6218Z" fill="#999999"/>
<path d="M24.3942 60.6218H0.972168V26.8134H24.3942V60.6218Z" fill="white"/>
<path d="M1.09637 60.4978H24.2706V26.9361H1.09637V60.4978ZM24.5174 60.7456H0.849609V26.6894H24.5174V60.7456Z" fill="#9D9D9C"/>
<path d="M23.4607 35.2175H1.90527V28.1143H23.4607V35.2175Z" fill="#D6D7D8"/>
<path d="M23.4601 43.7175H10.187V36.6143H23.4601V43.7175Z" fill="#D6D7D8"/>
<path d="M23.4601 48.1218H4.03467V45.2465H23.4601V48.1218Z" fill="#D6D7D8"/>
<path d="M23.4607 54.7058H1.90527V49.8172H23.4607V54.7058Z" fill="#D6D7D8"/>
</svg>
