<svg width="64" height="52" viewBox="0 0 64 52" fill="none" xmlns="http://www.w3.org/2000/svg">
<path d="M57.9859 48.3684H57.2888C54.7441 48.3684 52.6804 46.3047 52.6804 43.76V4.60793C52.6804 2.0623 54.7441 -0.000415802 57.2888 -0.000415802H57.9859C60.5315 -0.000415802 62.5952 2.0623 62.5952 4.60793V43.76C62.5952 46.3047 60.5315 48.3684 57.9859 48.3684Z" fill="#E9E9E9"/>
<path d="M62.5952 6.89419V44.0538L62.5915 43.4213C62.5564 40.7141 60.3533 38.5285 57.6378 38.5285C54.9214 38.5285 52.7192 40.7141 52.6841 43.4213H52.6804L52.6823 43.4637L52.6804 43.4859L52.6841 43.5496C52.686 43.6512 52.6915 43.7527 52.6998 43.8534C52.7072 43.9559 52.7183 44.0574 52.7312 44.1581L52.7598 44.3455L52.7977 44.5487C53.3175 47.0213 55.5104 48.8782 58.1383 48.8782C61.152 48.8782 63.5952 46.435 63.5952 43.4213V5.67724L62.5952 6.89419Z" fill="#BCBCBC"/>
<path d="M58.2827 17.5669C55.4795 17.5669 53.1047 18.7746 52.2607 20.4496V22.4855C53.1065 22.5769 55.4822 19.8688 58.2827 19.8688C60.9013 19.8688 63.0397 22.2381 64 22.4708V20.5899C63.2678 18.8282 61.1811 17.5669 58.2827 17.5669Z" fill="#F8CA00"/>
<path d="M30.4688 29.8749L8.74829 19.588C8.74829 24.0837 8.74829 28.5785 8.74829 33.0733C15.725 35.8359 20.3112 38.9272 30.4688 38.9272C39.9394 38.9272 45.2126 35.8359 52.1893 33.0733C52.1893 28.5785 52.1893 24.0837 52.1893 19.588L30.4688 29.8749Z" fill="#556270"/>
<path d="M8.74829 19.5881V21.9869C8.74829 21.9869 19.9022 28.3302 30.4688 35.2866C40.1222 28.8584 52.1893 21.9869 52.1893 21.9869V19.5881H8.74829Z" fill="#424242"/>
<path d="M30.4691 1.57947L0 15.4424V16.0084L8.74858 20.1514L30.4691 30.4382L52.1896 20.1514L60.9382 16.0084L30.4691 1.57947Z" fill="#8396A5"/>
<path d="M30.4697 1.57947V30.4382L52.1902 20.1514L60.9388 16.0084V15.4424L30.4697 1.57947Z" fill="#8396A5"/>
<path d="M30.4691 1.01255L0 15.4424L8.74858 19.5854L30.4691 29.8713L52.1896 19.5854L60.9382 15.4424L30.4691 1.01255Z" fill="#556270"/>
<path d="M30.4697 1.01255V29.8713L52.1902 19.5854L60.9388 15.4424L30.4697 1.01255Z" fill="#778999"/>
<path d="M8.08569 20.3286L8.16971 20.2788L8.08569 20.3286Z" fill="#E9E9E9"/>
<path d="M24.423 14.8126C24.0934 14.2669 23.3787 14.0906 22.8339 14.4193L12.4446 20.6915L12.3615 20.7423C12.0642 20.9528 11.8675 21.2972 11.8675 21.6869V23.744V39.8423C11.2701 40.2311 10.8749 40.9033 10.8749 41.6696C10.8749 42.4729 11.3107 43.1719 11.9571 43.5504L9.20737 49.6869C8.85374 50.4782 9.43175 51.3711 10.2988 51.3711H15.8101C16.6772 51.3711 17.2561 50.4782 16.9015 49.6869L14.1527 43.5504C14.7991 43.1719 15.2349 42.4729 15.2349 41.6696C15.2349 40.8783 14.812 40.1877 14.1823 39.8063V22.347L24.0297 16.4008C24.5753 16.0721 24.7517 15.3565 24.423 14.8126Z" fill="#FF847C"/>
</svg>
