<svg width="78" height="41" viewBox="0 0 78 41" fill="none" xmlns="http://www.w3.org/2000/svg">
<path d="M1.70752 4.72364V34.73H16.9048L17.8711 31.5572C18.1803 30.5549 19.1404 29.8583 20.2401 29.8583H24.9291C26.0253 29.8583 26.9924 30.5549 27.292 31.5572L28.2679 34.73H51.6291C52.3836 34.73 52.9924 34.1177 52.9924 33.3658V4.04727H1.76022C1.72772 4.26775 1.70752 4.49262 1.70752 4.72364Z" fill="#DAD1D1"/>
<path d="M6.42459 0.00498772H44.1451V-0.00028801H51.1574C52.1693 -0.00028801 52.9906 0.820152 52.9906 1.8312V4.04565H1.76025C2.08966 1.7618 4.04938 0.00498772 6.42459 0.00498772Z" fill="#E75C5B"/>
<path d="M1.35728 27.912C0.132778 27.9682 0.129264 23.8819 1.33532 23.8758C1.45654 24.6321 1.46971 27.1548 1.35728 27.912Z" fill="#E75C5B"/>
<path d="M1.11906 23.8448L1.35798 23.778L1.92191 23.6226C1.88678 23.6322 1.85428 23.7253 1.82969 23.8694C1.69441 24.6512 1.70583 27.138 1.85165 27.9189C1.87888 28.0629 1.90874 28.1551 1.94651 28.1648L1.3817 28.0137L1.14102 27.9487C0.969732 26.5011 0.951286 25.1589 1.11906 23.8448Z" fill="#DAD1D1"/>
<path d="M59.1123 34.0582L60.7839 34.6968L73.0131 34.3911L73.3627 34.0582L74.3535 33.3142V27.1513H59.1123V34.0582Z" fill="#3E312C"/>
<path d="M15.02 34.0581L16.9051 34.7292H28.2673L29.2704 34.0581L30.2612 33.3141V27.1512H15.02V34.0581Z" fill="#3E312C"/>
<path d="M65.9692 10.487V18.4137C65.9692 19.2368 66.6359 19.9009 67.4564 19.9009H71.1431C71.1167 19.7937 71.0912 19.6892 71.0649 19.582C70.2646 16.3468 69.2009 13.2039 67.8473 10.1576C67.7981 10.0504 67.7515 9.94678 67.7041 9.83961H66.6193C66.2618 9.83961 65.9692 10.1286 65.9692 10.487Z" fill="#ABEDE3"/>
<path d="M52.99 33.3149H54.0756V8.50174H52.99V33.3149Z" fill="#3E312C"/>
<path d="M54.0759 8.50179V33.4977C54.0759 34.175 54.6267 34.7231 55.3048 34.7204L60.7834 34.6967L61.8779 30.9424C62.1994 29.7399 63.134 29.1865 64.2171 29.1865H69.6676C70.7507 29.1865 71.7038 29.9024 72.0068 30.9424L73.0126 34.391L74.8476 33.8095C75.2833 33.6699 75.6303 33.3554 75.8191 32.9592C75.9192 32.7484 75.9746 32.5113 75.9746 32.2653L75.9658 30.4242L75.9605 29.6679V29.3139L75.9579 28.5576L75.9544 28.2071L75.9518 27.4481L75.9465 24.2156C75.9438 23.6877 75.7409 23.18 75.379 22.7952L71.1451 19.9009H67.4567C66.6362 19.9009 65.9704 19.2359 65.9704 18.4146V10.4879C65.9704 10.1295 66.2612 9.83872 66.6196 9.83872H67.7044C67.7044 9.83872 68.2657 6.73267 59.1531 6.73267L55.8196 6.7485C54.8559 6.75289 54.0759 7.53643 54.0759 8.50179Z" fill="#E75C5B"/>
<path d="M76.286 24.1435C77.2654 24.09 77.2681 27.9804 76.3045 27.9866C76.2061 27.2663 76.1964 24.8647 76.286 24.1435Z" fill="#F9B659"/>
<path d="M75.786 24.1445L75.9661 24.1437L76.3482 24.1419C76.3254 24.1419 76.3052 24.2139 76.2894 24.3316C76.2006 24.9825 76.2094 27.1469 76.3052 27.7969C76.3228 27.9138 76.3421 27.9858 76.3658 27.9858L75.9846 27.9875H75.8036C75.6683 26.6445 75.6543 25.3594 75.786 24.1445Z" fill="#C44645"/>
<path d="M56.8413 32.8545H58.9714C59.7154 32.8545 60.3733 32.3556 60.5639 31.637C61.2017 29.2214 61.9659 28.4396 63.8009 28.2622C64.6336 28.1822 65.2511 27.4497 65.2511 26.6134V11.07C65.2511 9.83499 64.4412 9.02509 63.4416 9.02509H57.1136C56.1139 9.02509 55.3049 9.83499 55.3049 10.8337V31.3182C55.3049 32.1667 55.9927 32.8545 56.8413 32.8545Z" fill="#C44645"/>
<path d="M57.2635 9.66912H63.2929C64.0255 9.66912 64.6184 10.3244 64.6184 11.1334V18.606C64.6184 19.415 64.0255 20.0703 63.2929 20.0703H57.2635C56.5309 20.0703 55.938 19.415 55.938 18.606V11.1334C55.938 10.3244 56.5309 9.66912 57.2635 9.66912Z" fill="#ABEDE3"/>
<path d="M1.70752 19.263V34.73H16.9048L17.8711 31.5572C18.1803 30.5549 19.1404 29.8583 20.2401 29.8583H24.9291C26.0253 29.8583 26.9924 30.5549 27.292 31.5572L28.2679 34.73H46.1584V32.982C46.1584 25.4162 40.006 19.263 32.4394 19.263H1.70752Z" fill="#E75C5B"/>
<path d="M41.2776 32.9821V34.7292H28.2667L27.2934 31.5573C26.9903 30.5533 26.025 29.8594 24.9296 29.8594H20.2407C19.1392 29.8594 18.1799 30.5533 17.8707 31.5573L16.9045 34.7292H1.7063V24.1436H32.4391C37.3204 24.1436 41.2776 28.1008 41.2776 32.9821Z" fill="#C44645"/>
<path d="M74.163 32.8545H76.8026L76.959 32.7421C77.3086 31.6985 77.3437 30.6356 76.9607 29.5473L76.8035 29.4357H74.9632C74.0673 29.4357 73.3408 30.1631 73.3408 31.059V32.0314C73.3408 32.4864 73.7089 32.8545 74.163 32.8545Z" fill="#DAD1D1"/>
<path d="M3.07152 32.8545H0.431907L0.276428 32.7421C-0.0740564 31.6985 -0.109184 30.6356 0.27468 29.5473L0.431028 29.4357H2.27129C3.16727 29.4357 3.89459 30.1631 3.89459 31.059V32.0314C3.89459 32.4864 3.52566 32.8545 3.07152 32.8545Z" fill="#DAD1D1"/>
<path d="M69.3625 23.3608L69.5803 23.2967C69.7665 23.1764 69.821 22.9287 69.6998 22.7416L67.2218 18.9249C67.1014 18.7387 66.852 18.6851 66.6666 18.8046C66.4804 18.9249 66.4268 19.1726 66.5463 19.3597L69.026 23.1764C69.1033 23.2959 69.2316 23.3608 69.3625 23.3608Z" fill="#3E312C"/>
<path d="M66.3398 22.196H66.353C67.0804 22.196 67.6706 21.7024 67.6706 21.0928V16.4284C67.6706 15.8188 67.0804 15.3252 66.353 15.3252H66.3398V22.196Z" fill="#C44645"/>
<path d="M63.2908 19.582H60.7136L56.4243 12.5891V11.1344C56.4243 10.5942 56.8029 10.1576 57.2606 10.1576H59.5875L64.1297 17.6293V18.6061C64.1297 19.1455 63.7528 19.582 63.2908 19.582Z" fill="#D5F6F1"/>
<path d="M64.1302 16.6919L60.1738 10.1574H61.6733L64.1302 14.2253V16.6919Z" fill="#D5F6F1"/>
<path d="M71.0654 19.582H70.5261L66.2368 12.5891V11.1344C66.2368 10.1576 66.2825 10.1576 67.0731 10.1576H67.8478C69.2014 13.2039 70.2652 16.3469 71.0654 19.582Z" fill="#D5F6F1"/>
<path d="M39.0328 40.3633C18.5264 40.3633 1.9043 39.8573 1.9043 39.2337C1.9043 38.61 18.5264 38.104 39.0328 38.104C59.5383 38.104 76.1612 38.61 76.1612 39.2337C76.1612 39.8573 59.5383 40.3633 39.0328 40.3633Z" fill="#E8E8E8"/>
<path d="M19.7886 29.8584H25.1153V28.8589H19.7886V29.8584Z" fill="#C44645"/>
<path d="M56.9775 22.0513H59.4178V21.0508H56.9775V22.0513Z" fill="white"/>
<path d="M50.6931 2.93705C50.6931 3.07057 50.802 3.17773 50.9347 3.17773C51.0673 3.17773 51.1745 3.07057 51.1745 2.93705V1.07132C51.1745 0.937801 51.0673 0.830637 50.9347 0.830637C50.802 0.830637 50.6931 0.937801 50.6931 1.07132V2.93705Z" fill="#3E312C"/>
<path d="M49.6099 2.93705C49.6099 3.07057 49.7179 3.17773 49.8505 3.17773C49.9841 3.17773 50.0912 3.07057 50.0912 2.93705V1.07132C50.0912 0.937801 49.9841 0.830637 49.8505 0.830637C49.7179 0.830637 49.6099 0.937801 49.6099 1.07132V2.93705Z" fill="#3E312C"/>
<path d="M48.5276 2.93705C48.5276 3.07057 48.6348 3.17773 48.7674 3.17773C48.9001 3.17773 49.009 3.07057 49.009 2.93705V1.07132C49.009 0.937801 48.9001 0.830637 48.7674 0.830637C48.6348 0.830637 48.5276 0.937801 48.5276 1.07132V2.93705Z" fill="#3E312C"/>
<path d="M47.4429 2.93705C47.4429 3.07057 47.55 3.17773 47.6836 3.17773C47.8162 3.17773 47.9242 3.07057 47.9242 2.93705V1.07132C47.9242 0.937801 47.8162 0.830637 47.6836 0.830637C47.55 0.830637 47.4429 0.937801 47.4429 1.07132V2.93705Z" fill="#3E312C"/>
<path d="M46.3596 2.93705C46.3596 3.07057 46.4668 3.17773 46.5994 3.17773C46.7329 3.17773 46.841 3.07057 46.841 2.93705V1.07132C46.841 0.937801 46.7329 0.830637 46.5994 0.830637C46.4668 0.830637 46.3596 0.937801 46.3596 1.07132V2.93705Z" fill="#3E312C"/>
<path d="M45.2749 2.93705C45.2749 3.07057 45.3838 3.17773 45.5165 3.17773C45.6491 3.17773 45.7571 3.07057 45.7571 2.93705V1.07132C45.7571 0.937801 45.6491 0.830637 45.5165 0.830637C45.3838 0.830637 45.2749 0.937801 45.2749 1.07132V2.93705Z" fill="#3E312C"/>
<path d="M44.1926 2.93705C44.1926 3.07057 44.3007 3.17773 44.4342 3.17773C44.5668 3.17773 44.6749 3.07057 44.6749 2.93705V1.07132C44.6749 0.937801 44.5668 0.830637 44.4342 0.830637C44.3007 0.830637 44.1926 0.937801 44.1926 1.07132V2.93705Z" fill="#3E312C"/>
<path d="M52.9906 4.04565H1.76025C2.08966 1.7618 4.04938 0.00498772 6.42459 0.00498772H44.1451V-0.00028801H51.1574C52.1693 -0.00028801 52.9906 0.820152 52.9906 1.8312V4.04565ZM50.9343 0.830681C50.8017 0.830681 50.6927 0.937845 50.6927 1.07136V2.9371C50.6927 3.07061 50.8017 3.17778 50.9343 3.17778C51.0669 3.17778 51.1741 3.07061 51.1741 2.9371V1.07136C51.1741 0.937845 51.0669 0.830681 50.9343 0.830681ZM49.8503 0.830681C49.7177 0.830681 49.6097 0.937845 49.6097 1.07136V2.9371C49.6097 3.07061 49.7177 3.17778 49.8503 3.17778C49.9839 3.17778 50.091 3.07061 50.091 2.9371V1.07136C50.091 0.937845 49.9839 0.830681 49.8503 0.830681ZM48.7664 0.830681C48.6338 0.830681 48.5266 0.937845 48.5266 1.07136V2.9371C48.5266 3.07061 48.6338 3.17778 48.7664 3.17778C48.899 3.17778 49.008 3.07061 49.008 2.9371V1.07136C49.008 0.937845 48.899 0.830681 48.7664 0.830681ZM47.6833 0.830681C47.5498 0.830681 47.4426 0.937845 47.4426 1.07136V2.9371C47.4426 3.07061 47.5498 3.17778 47.6833 3.17778C47.816 3.17778 47.924 3.07061 47.924 2.9371V1.07136C47.924 0.937845 47.816 0.830681 47.6833 0.830681ZM46.5994 0.830681C46.4667 0.830681 46.3596 0.937845 46.3596 1.07136V2.9371C46.3596 3.07061 46.4667 3.17778 46.5994 3.17778C46.7329 3.17778 46.8409 3.07061 46.8409 2.9371V1.07136C46.8409 0.937845 46.7329 0.830681 46.5994 0.830681ZM45.5163 0.830681C45.3837 0.830681 45.2747 0.937845 45.2747 1.07136V2.9371C45.2747 3.07061 45.3837 3.17778 45.5163 3.17778C45.6489 3.17778 45.757 3.07061 45.757 2.9371V1.07136C45.757 0.937845 45.6489 0.830681 45.5163 0.830681ZM44.4332 0.830681C44.2997 0.830681 44.1917 0.937845 44.1917 1.07136V2.9371C44.1917 3.07061 44.2997 3.17778 44.4332 3.17778C44.5659 3.17778 44.6739 3.07061 44.6739 2.9371V1.07136C44.6739 0.937845 44.5659 0.830681 44.4332 0.830681Z" fill="#D25654"/>
<path d="M50.9347 3.17773C50.802 3.17773 50.6931 3.07057 50.6931 2.93705V1.07132C50.6931 0.937801 50.802 0.830637 50.9347 0.830637C51.0673 0.830637 51.1745 0.937801 51.1745 1.07132V2.93705C51.1745 3.07057 51.0673 3.17773 50.9347 3.17773Z" fill="#3B2F2A"/>
<path d="M49.8505 3.17773C49.7179 3.17773 49.6099 3.07057 49.6099 2.93705V1.07132C49.6099 0.937801 49.7179 0.830637 49.8505 0.830637C49.9841 0.830637 50.0912 0.937801 50.0912 1.07132V2.93705C50.0912 3.07057 49.9841 3.17773 49.8505 3.17773Z" fill="#3B2F2A"/>
<path d="M48.7674 3.17773C48.6348 3.17773 48.5276 3.07057 48.5276 2.93705V1.07132C48.5276 0.937801 48.6348 0.830637 48.7674 0.830637C48.9001 0.830637 49.009 0.937801 49.009 1.07132V2.93705C49.009 3.07057 48.9001 3.17773 48.7674 3.17773Z" fill="#3B2F2A"/>
<path d="M47.6836 3.17773C47.55 3.17773 47.4429 3.07057 47.4429 2.93705V1.07132C47.4429 0.937801 47.55 0.830637 47.6836 0.830637C47.8162 0.830637 47.9242 0.937801 47.9242 1.07132V2.93705C47.9242 3.07057 47.8162 3.17773 47.6836 3.17773Z" fill="#3B2F2A"/>
<path d="M46.5994 3.17773C46.4668 3.17773 46.3596 3.07057 46.3596 2.93705V1.07132C46.3596 0.937801 46.4668 0.830637 46.5994 0.830637C46.7329 0.830637 46.841 0.937801 46.841 1.07132V2.93705C46.841 3.07057 46.7329 3.17773 46.5994 3.17773Z" fill="#3B2F2A"/>
<path d="M45.5165 3.17773C45.3838 3.17773 45.2749 3.07057 45.2749 2.93705V1.07132C45.2749 0.937801 45.3838 0.830637 45.5165 0.830637C45.6491 0.830637 45.7571 0.937801 45.7571 1.07132V2.93705C45.7571 3.07057 45.6491 3.17773 45.5165 3.17773Z" fill="#3B2F2A"/>
<path d="M44.4342 3.17773C44.3007 3.17773 44.1926 3.07057 44.1926 2.93705V1.07132C44.1926 0.937801 44.3007 0.830637 44.4342 0.830637C44.5668 0.830637 44.6749 0.937801 44.6749 1.07132V2.93705C44.6749 3.07057 44.5668 3.17773 44.4342 3.17773Z" fill="#3B2F2A"/>
<path d="M51.6286 34.73H28.2674L28.2665 34.7291H16.9043H28.2665H28.2674V34.73H46.1579H51.6286C52.3831 34.73 52.9919 34.1177 52.9919 33.3658V33.3149H54.0758V28.6277V33.3149H52.9919V33.3658C52.9919 34.1177 52.3831 34.73 51.6286 34.73ZM55.2986 34.7203C55.3003 34.7203 55.3021 34.7203 55.3047 34.7203L60.7833 34.6966L73.0125 34.3909L74.8475 33.8094C75.2832 33.6697 75.6302 33.3553 75.819 32.9591C75.6302 33.3553 75.2832 33.6697 74.8475 33.8094L73.0125 34.3909L60.7833 34.6966L55.3047 34.7203C55.303 34.7203 55.3003 34.7203 55.2986 34.7203ZM55.2951 34.7203C54.6213 34.7186 54.0758 34.1713 54.0758 33.4976C54.0758 34.1713 54.6213 34.7186 55.2951 34.7203ZM1.70617 28.1006L1.38204 28.0137L1.14136 27.9487L1.38204 28.0137L1.70617 28.1006Z" fill="#E8E8E8"/>
<path d="M51.6293 34.73H46.1586V32.982C46.1586 31.1645 45.8037 29.4288 45.1589 27.8398L52.9908 28.532V33.3149H52.9926V33.3658C52.9926 34.1177 52.3838 34.73 51.6293 34.73Z" fill="#C7BFBE"/>
<path d="M1.13282 27.8713C0.218398 27.4831 0.206107 24.4394 1.08539 23.9475L1.10647 23.9492C0.956265 25.2071 0.973827 26.4914 1.13282 27.8713Z" fill="#D25654"/>
<path d="M1.70575 28.1008L1.38162 28.0139L1.14094 27.9489L1.13391 27.8716C1.13303 27.8716 1.13303 27.8716 1.13215 27.8716C0.973156 26.4916 0.955594 25.2074 1.1058 23.9495L1.70663 24.0031V24.1436H1.70575V28.1008Z" fill="#C7BFBE"/>
<path d="M60.7837 34.6968L61.8782 30.9425C62.0794 30.1897 62.5212 29.6907 63.0895 29.4237L71.6294 30.1774C71.7963 30.404 71.9254 30.6614 72.0071 30.9425L73.0129 34.3911L60.7837 34.6968Z" fill="#3B2F2A"/>
<path d="M28.2672 34.7292H16.905L17.5261 32.6905L17.8713 31.5573C17.902 31.4581 17.9398 31.3606 17.9828 31.2674C18.1647 30.873 18.4537 30.5393 18.8103 30.2959C19.2179 30.0192 19.7133 29.8594 20.2412 29.8594H24.9302C25.7374 29.8594 26.4753 30.2371 26.9276 30.8379C27.0884 31.0522 27.2131 31.2938 27.2922 31.5573L28.0116 33.8948L28.2672 34.7292Z" fill="#3B2F2A"/>
<path d="M54.0757 33.3149H52.99V28.532L54.0757 28.6278V33.3149Z" fill="#3B2F2A"/>
<path d="M55.2987 34.7205C55.2978 34.7205 55.296 34.7205 55.2951 34.7205C54.6214 34.7187 54.0759 34.1715 54.0759 33.4977V33.315V28.6278L55.3048 28.7359V31.3184C55.3048 32.1669 55.9926 32.8547 56.8411 32.8547H58.9713C59.7153 32.8547 60.3732 32.3558 60.5638 31.6373C60.8484 30.5603 61.1576 29.8084 61.5757 29.2901L63.0892 29.4237C62.5209 29.6907 62.0791 30.1896 61.8779 30.9424L60.7834 34.6967L55.3048 34.7205C55.3022 34.7205 55.3004 34.7205 55.2987 34.7205ZM73.0126 34.3911L72.0068 30.9424C71.9251 30.6613 71.796 30.404 71.6291 30.1773L73.5071 30.3434C73.4009 30.5594 73.3411 30.8028 73.3411 31.0593V32.0317C73.3411 32.4867 73.7092 32.8547 74.1633 32.8547H75.8648H75.8622L75.8191 32.9593C75.6303 33.3554 75.2833 33.6699 74.8476 33.8096L73.0126 34.3911Z" fill="#D25654"/>
<path d="M58.9714 32.8545H56.8413C55.9927 32.8545 55.3049 32.1667 55.3049 31.3182V28.7356L61.5759 29.2899C61.1577 29.8082 60.8485 30.5601 60.5639 31.637C60.3733 32.3556 59.7154 32.8545 58.9714 32.8545Z" fill="#B34241"/>
<path d="M46.158 34.73H28.2675V34.7291H41.2776V32.982C41.2776 30.8255 40.5055 28.8499 39.2221 27.3154L45.1584 27.8398C45.8032 29.4288 46.158 31.1645 46.158 32.982V34.73ZM16.9045 34.73H1.70718V34.7291H16.9045L17.5255 32.6903L16.9045 34.7291V34.73ZM28.011 33.8946L27.2916 31.5572C27.2126 31.2937 27.0878 31.0521 26.9271 30.8378C27.0887 31.0512 27.2134 31.2937 27.2934 31.5572L28.011 33.8946ZM17.9823 31.2673C18.1641 30.872 18.4531 30.5391 18.8097 30.2958C18.4531 30.5391 18.1641 30.8729 17.9823 31.2673ZM3.305 24.1434H1.7063L1.70718 24.0029L3.305 24.1434Z" fill="#D25654"/>
<path d="M41.2776 34.7292H28.2667L28.011 33.8948L27.2934 31.5573C27.2134 31.2938 27.0887 31.0514 26.9271 30.8379C26.4747 30.2371 25.7368 29.8594 24.9296 29.8594H20.2407C19.7128 29.8594 19.2173 30.0192 18.8097 30.2959C18.4531 30.5393 18.1641 30.8722 17.9823 31.2674C17.9392 31.3606 17.9015 31.4581 17.8707 31.5573L17.5255 32.6905L16.9045 34.7292H1.70718H1.7063V32.8547H3.07134C3.52548 32.8547 3.89441 32.4867 3.89441 32.0317V31.0593C3.89441 30.1633 3.16709 29.436 2.27112 29.436H1.7063V28.1008V24.1436H3.305L39.2221 27.3155C40.5055 28.8501 41.2776 30.8256 41.2776 32.9821V34.7292ZM19.7883 28.8589V29.8585H25.1149V28.8589H19.7883Z" fill="#B34241"/>
<path d="M76.8026 32.8545H74.163C73.7089 32.8545 73.3408 32.4864 73.3408 32.0314V31.059C73.3408 30.8025 73.4005 30.5592 73.5068 30.3431L77.2102 30.6708C77.2787 31.37 77.1874 32.0604 76.959 32.7421L76.8026 32.8545Z" fill="#C7BFBE"/>
<path d="M3.07178 32.8545H0.432169L0.276689 32.7421C0.0974945 32.2089 0 31.6695 0 31.124C0 30.604 0.0869626 30.0787 0.274941 29.5473L0.43129 29.4357H1.70674H2.27156C3.16753 29.4357 3.89485 30.1631 3.89485 31.059V32.0314C3.89485 32.4864 3.52592 32.8545 3.07178 32.8545Z" fill="#C7BFBE"/>
<path d="M19.7886 29.8584H25.1153V28.8589H19.7886V29.8584Z" fill="#B34241"/>
<path d="M64.4355 34.4376C64.4355 35.8554 65.5854 37.0061 67.004 37.0061C68.4226 37.0061 69.5725 35.8554 69.5725 34.4376C69.5725 33.0181 68.4226 31.8683 67.004 31.8683C65.5854 31.8683 64.4355 33.0181 64.4355 34.4376Z" fill="#1D1715"/>
<path d="M64.0514 34.4402C64.0497 32.809 65.3699 31.4852 67.0011 31.4843C68.6314 31.4826 69.9552 32.8037 69.957 34.4349C69.9578 36.0652 68.6376 37.389 67.0064 37.3899C65.3752 37.3916 64.0523 36.0705 64.0514 34.4402ZM62.2068 34.4419C62.2094 37.0903 64.3589 39.2354 67.0081 39.2336C69.6565 39.231 71.8034 37.0815 71.8007 34.4332C71.7981 31.7839 69.6495 29.6379 66.9994 29.6406C64.3501 29.6432 62.205 31.7927 62.2068 34.4419Z" fill="#1D1715"/>
<path d="M63.9762 34.4402C63.9744 32.7668 65.3298 31.4088 67.0023 31.4071C68.6748 31.4062 70.0328 32.7607 70.0346 34.4349C70.0354 36.1083 68.6809 37.4654 67.0085 37.4654C65.3342 37.4681 63.9771 36.1127 63.9762 34.4402ZM63.6082 34.4402C63.6099 36.3156 65.1313 37.8361 67.0085 37.8335C68.8847 37.8326 70.4035 36.3103 70.4017 34.4341C70.4 32.5578 68.8786 31.039 67.0014 31.0399C65.126 31.0417 63.6064 32.5648 63.6082 34.4402Z" fill="#DADADA"/>
<path d="M65.6961 34.4386C65.6952 33.7148 66.2811 33.1289 67.004 33.1289C67.727 33.128 68.3129 33.713 68.3137 34.436C68.3137 35.1589 67.7287 35.7457 67.0067 35.7465C66.2837 35.7474 65.6961 35.1615 65.6961 34.4386ZM64.9231 34.4386C64.924 35.5884 65.8568 36.5204 67.0067 36.5195C68.1565 36.5187 69.0885 35.5858 69.0867 34.4351C69.0859 33.2852 68.1521 32.3541 67.0032 32.355C65.8524 32.3559 64.9222 33.2887 64.9231 34.4386Z" fill="#EDEDED"/>
<path d="M66.0904 34.4386L66.1993 34.3288L66.3091 34.4386L66.1993 34.5476L66.0904 34.4386ZM66.2388 34.9393L66.5032 34.9385L66.5041 35.2029H66.2388V34.9393ZM66.5058 34.4378C66.5058 34.1628 66.7281 33.9406 67.0039 33.9406C67.2779 33.9397 67.5002 34.1628 67.5011 34.4369C67.5011 34.7109 67.2788 34.9349 67.0039 34.9349C66.7298 34.9349 66.5058 34.7127 66.5058 34.4378ZM66.8958 35.2415L67.0048 35.1326L67.1137 35.2415L67.0048 35.3513L66.8958 35.2415ZM67.5046 34.9376H67.7707V35.202H67.5046V34.9376ZM67.8085 34.5458L67.6996 34.4369L67.8085 34.328L67.9174 34.4369L67.8085 34.5458ZM67.769 33.9353L67.5046 33.9362V33.6709H67.769V33.9353ZM67.1119 33.6331L67.0039 33.7421L66.8941 33.6331L67.0039 33.5242L67.1119 33.6331ZM66.5032 33.9371H66.2388V33.6718H66.5032V33.9371ZM65.6951 34.4386C65.6951 35.1616 66.2827 35.7475 67.0056 35.7466C67.7277 35.7457 68.3127 35.1589 68.3127 34.436C68.3118 33.7131 67.7259 33.1281 67.003 33.1289C66.2801 33.1289 65.6942 33.7148 65.6951 34.4386Z" fill="#DAD1D1"/>
<path d="M66.0904 34.4386L66.1993 34.3288L66.3091 34.4386L66.1993 34.5476L66.0904 34.4386ZM66.2388 34.9393L66.5032 34.9385L66.5041 35.2029H66.2388V34.9393ZM66.5058 34.4378C66.5058 34.1628 66.7281 33.9406 67.0039 33.9406C67.2779 33.9397 67.5002 34.1628 67.5011 34.4369C67.5011 34.7109 67.2788 34.9349 67.0039 34.9349C66.7298 34.9349 66.5058 34.7127 66.5058 34.4378ZM66.8958 35.2415L67.0048 35.1326L67.1137 35.2415L67.0048 35.3513L66.8958 35.2415ZM67.5046 34.9376H67.7707V35.202H67.5046V34.9376ZM67.8085 34.5458L67.6996 34.4369L67.8085 34.328L67.9174 34.4369L67.8085 34.5458ZM67.769 33.9353L67.5046 33.9362V33.6709H67.769V33.9353ZM67.1119 33.6331L67.0039 33.7421L66.8941 33.6331L67.0039 33.5242L67.1119 33.6331ZM66.5032 33.9371H66.2388V33.6718H66.5032V33.9371ZM65.6951 34.4386C65.6951 35.1616 66.2827 35.7475 67.0056 35.7466C67.7277 35.7457 68.3127 35.1589 68.3127 34.436C68.3118 33.7131 67.7259 33.1281 67.003 33.1289C66.2801 33.1289 65.6942 33.7148 65.6951 34.4386Z" fill="#C6C6C6"/>
<path d="M64.1114 34.4395C64.1114 34.2813 64.2616 34.1531 64.4469 34.1531C64.6314 34.1531 64.7816 34.2813 64.7816 34.4386C64.7816 34.5976 64.6314 34.7258 64.4469 34.7258C64.2616 34.7258 64.1122 34.5984 64.1114 34.4395ZM64.6472 35.4698C64.807 35.3776 65.0012 35.4145 65.0794 35.5515C65.1593 35.6877 65.0934 35.8739 64.9335 35.9661C64.7737 36.0584 64.5795 36.0232 64.4996 35.8862C64.4205 35.7492 64.4873 35.5629 64.6472 35.4698ZM65.4799 36.5116C65.5713 36.3509 65.7575 36.285 65.8945 36.364C66.0316 36.4422 66.0676 36.6364 65.9762 36.7971C65.884 36.9579 65.6978 37.0237 65.5598 36.9438C65.4237 36.8656 65.3868 36.6715 65.4799 36.5116ZM66.7202 36.9956C66.7202 36.8112 66.8485 36.6609 67.0066 36.6609C67.1638 36.6609 67.2938 36.8103 67.2938 36.9956C67.2938 37.181 67.1656 37.3303 67.0075 37.3303C66.8485 37.3303 66.7211 37.181 66.7202 36.9956ZM68.1178 36.3623C68.2557 36.2832 68.4419 36.3482 68.5332 36.509C68.6263 36.6689 68.5912 36.8621 68.4533 36.942C68.3172 37.022 68.1309 36.9552 68.0387 36.7945C67.9465 36.6355 67.9807 36.4413 68.1178 36.3623ZM68.9312 35.5471C69.0102 35.411 69.2044 35.3741 69.3633 35.4663C69.5241 35.5594 69.59 35.7448 69.5118 35.8818C69.4327 36.0188 69.2386 36.0549 69.0779 35.9626C68.9189 35.8713 68.8521 35.685 68.9312 35.5471ZM69.5636 34.7214C69.3792 34.7214 69.2281 34.5932 69.2281 34.4351C69.2281 34.2778 69.3783 34.1487 69.5636 34.1487C69.7472 34.1487 69.8992 34.2761 69.8992 34.4351C69.8992 34.5932 69.7481 34.7206 69.5636 34.7214ZM69.3633 33.4029C69.2035 33.4969 69.0085 33.4609 68.9294 33.3239C68.8495 33.1869 68.9162 33.0006 69.0752 32.9075C69.236 32.8153 69.4301 32.8513 69.5083 32.9883C69.5873 33.1263 69.5232 33.3107 69.3633 33.4029ZM68.5297 32.3638C68.4375 32.5237 68.2522 32.5895 68.1151 32.5105C67.9772 32.4314 67.9421 32.2382 68.0343 32.0774C68.1257 31.9176 68.3119 31.8517 68.4498 31.9307C68.5859 32.0098 68.6229 32.203 68.5297 32.3638ZM67.2885 31.8789C67.2885 32.0643 67.1612 32.2136 67.0031 32.2136C66.8441 32.2136 66.7167 32.0643 66.7167 31.8789C66.7167 31.6936 66.8441 31.5442 67.0022 31.5442C67.1603 31.5442 67.2885 31.6936 67.2885 31.8789ZM65.891 32.5131C65.754 32.5913 65.5686 32.5263 65.4764 32.3664C65.3833 32.2066 65.4193 32.0124 65.5554 31.9334C65.6942 31.8543 65.8796 31.9193 65.9718 32.0801C66.064 32.2391 66.0289 32.4332 65.891 32.5131ZM67.0031 32.355C68.152 32.3541 69.0858 33.2852 69.0866 34.4351C69.0884 35.5858 68.1564 36.5186 67.0066 36.5195C65.8567 36.5204 64.9239 35.5884 64.923 34.4386C64.9221 33.2887 65.8523 32.3559 67.0031 32.355ZM65.0785 33.3274C64.9994 33.4644 64.8053 33.4996 64.6446 33.4073C64.4847 33.316 64.4188 33.1298 64.4978 32.9936C64.5769 32.8557 64.771 32.8197 64.9309 32.9119C65.0908 33.0041 65.1567 33.1895 65.0785 33.3274ZM63.9761 34.4403C63.977 36.1128 65.3341 37.4682 67.0083 37.4656C68.6808 37.4656 70.0353 36.1084 70.0344 34.4351C70.0327 32.7608 68.6747 31.4063 67.0022 31.4072C65.3297 31.409 63.9743 32.767 63.9761 34.4403Z" fill="#DAD1D1"/>
<path d="M20.0718 34.4376C20.0718 35.8554 21.2216 37.0061 22.6402 37.0061C24.0589 37.0061 25.2087 35.8554 25.2087 34.4376C25.2087 33.0181 24.0589 31.8683 22.6402 31.8683C21.2216 31.8683 20.0718 33.0181 20.0718 34.4376Z" fill="#1D1715"/>
<path d="M19.6877 34.4402C19.6859 32.809 21.0079 31.4852 22.6373 31.4843C24.2685 31.4826 25.5914 32.8037 25.5932 34.4349C25.5941 36.0652 24.2738 37.389 22.6426 37.3899C21.0123 37.3916 19.6894 36.0705 19.6877 34.4402ZM17.843 34.4419C17.8457 37.0903 19.9951 39.2354 22.6444 39.2336C25.2936 39.231 27.4396 37.0815 27.437 34.4332C27.4352 32.2872 26.0245 30.4724 24.0815 29.8619H21.1985C19.2529 30.4742 17.8421 32.2934 17.843 34.4419Z" fill="#1D1715"/>
<path d="M19.611 34.4402C19.6092 32.7668 20.9646 31.4088 22.6371 31.4071C24.3096 31.4062 25.6676 32.7607 25.6693 34.4349C25.6702 36.1083 24.3157 37.4654 22.6432 37.4654C20.9699 37.4681 19.6127 36.1127 19.611 34.4402ZM19.2429 34.4402C19.2447 36.3156 20.7661 37.8361 22.6432 37.8335C24.5195 37.8326 26.0383 36.3103 26.0374 34.4341C26.0356 32.5578 24.5133 31.039 22.6362 31.0399C20.7608 31.0417 19.2412 32.5648 19.2429 34.4402Z" fill="#DADADA"/>
<path d="M21.3311 34.4386C21.3302 33.7148 21.9161 33.1289 22.639 33.1289C23.362 33.128 23.9479 33.713 23.9488 34.436C23.9488 35.1589 23.3637 35.7457 22.6417 35.7465C21.9188 35.7474 21.332 35.1615 21.3311 34.4386ZM20.5581 34.4386C20.559 35.5884 21.4918 36.5204 22.6417 36.5195C23.7924 36.5187 24.7235 35.5858 24.7218 34.4351C24.7209 33.2852 23.7889 32.3541 22.6382 32.355C21.4883 32.3559 20.5572 33.2887 20.5581 34.4386Z" fill="#EDEDED"/>
<path d="M21.7266 34.4386L21.8355 34.3288L21.9453 34.4386L21.8355 34.5476L21.7266 34.4386ZM21.875 34.9393L22.1394 34.9385L22.1403 35.2029H21.875V34.9393ZM22.1438 34.4378C22.1429 34.1628 22.3652 33.9406 22.6401 33.9406C22.9142 33.9397 23.1364 34.1628 23.1373 34.4369C23.1373 34.7109 22.9151 34.9349 22.6401 34.9349C22.3661 34.9349 22.1438 34.7127 22.1438 34.4378ZM22.5321 35.2415L22.641 35.1326L22.7499 35.2415L22.641 35.3513L22.5321 35.2415ZM23.1408 34.9376H23.407V35.202H23.1408V34.9376ZM23.4447 34.5458L23.3358 34.4369L23.4447 34.328L23.5537 34.4369L23.4447 34.5458ZM23.4052 33.9353L23.1408 33.9362V33.6709H23.4052V33.9353ZM22.749 33.6331L22.6401 33.7421L22.5303 33.6331L22.6401 33.5242L22.749 33.6331ZM22.1394 33.9371H21.875V33.6718H22.1394V33.9371ZM21.3313 34.4386C21.3322 35.1616 21.9189 35.7475 22.6419 35.7466C23.3639 35.7457 23.949 35.1589 23.949 34.436C23.9481 33.7131 23.3622 33.1281 22.6392 33.1289C21.9163 33.1289 21.3304 33.7148 21.3313 34.4386Z" fill="#DAD1D1"/>
<path d="M21.7266 34.4386L21.8355 34.3288L21.9453 34.4386L21.8355 34.5476L21.7266 34.4386ZM21.875 34.9393L22.1394 34.9385L22.1403 35.2029H21.875V34.9393ZM22.1438 34.4378C22.1429 34.1628 22.3652 33.9406 22.6401 33.9406C22.9142 33.9397 23.1364 34.1628 23.1373 34.4369C23.1373 34.7109 22.9151 34.9349 22.6401 34.9349C22.3661 34.9349 22.1438 34.7127 22.1438 34.4378ZM22.5321 35.2415L22.641 35.1326L22.7499 35.2415L22.641 35.3513L22.5321 35.2415ZM23.1408 34.9376H23.407V35.202H23.1408V34.9376ZM23.4447 34.5458L23.3358 34.4369L23.4447 34.328L23.5537 34.4369L23.4447 34.5458ZM23.4052 33.9353L23.1408 33.9362V33.6709H23.4052V33.9353ZM22.749 33.6331L22.6401 33.7421L22.5303 33.6331L22.6401 33.5242L22.749 33.6331ZM22.1394 33.9371H21.875V33.6718H22.1394V33.9371ZM21.3313 34.4386C21.3322 35.1616 21.9189 35.7475 22.6419 35.7466C23.3639 35.7457 23.949 35.1589 23.949 34.436C23.9481 33.7131 23.3622 33.1281 22.6392 33.1289C21.9163 33.1289 21.3304 33.7148 21.3313 34.4386Z" fill="#C6C6C6"/>
<path d="M19.7464 34.4395C19.7464 34.2813 19.8966 34.1531 20.0819 34.1531C20.2664 34.1531 20.4166 34.2813 20.4166 34.4386C20.4166 34.5976 20.2664 34.7258 20.0828 34.7258C19.8966 34.7258 19.7472 34.5984 19.7464 34.4395ZM20.2822 35.4698C20.4421 35.3776 20.6362 35.4145 20.7152 35.5515C20.7943 35.6877 20.7284 35.8739 20.5694 35.9661C20.4087 36.0584 20.2145 36.0232 20.1346 35.8862C20.0564 35.7492 20.1223 35.5629 20.2822 35.4698ZM21.1149 36.5116C21.2072 36.3509 21.3934 36.285 21.5304 36.364C21.6674 36.4422 21.7043 36.6364 21.6112 36.7971C21.5199 36.9579 21.3328 37.0237 21.1957 36.9438C21.0587 36.8656 21.0218 36.6715 21.1149 36.5116ZM22.3561 36.9956C22.3561 36.8112 22.4835 36.6609 22.6416 36.6609C22.7997 36.6609 22.9288 36.8103 22.9288 36.9956C22.9288 37.181 22.8015 37.3303 22.6425 37.3303C22.4844 37.3303 22.3561 37.181 22.3561 36.9956ZM23.7537 36.3623C23.8907 36.2832 24.0769 36.3482 24.1683 36.509C24.2614 36.6689 24.2262 36.8621 24.0883 36.942C23.9522 37.022 23.7659 36.9552 23.6737 36.7945C23.5815 36.6355 23.6158 36.4413 23.7537 36.3623ZM24.5671 35.5471C24.6452 35.411 24.8402 35.3741 25.0001 35.4663C25.1591 35.5594 25.2259 35.7448 25.1468 35.8818C25.0686 36.0188 24.8736 36.0549 24.7138 35.9626C24.5539 35.8713 24.488 35.685 24.5671 35.5471ZM25.1995 34.7214C25.0142 34.7214 24.864 34.5932 24.8631 34.4351C24.8631 34.2778 25.0133 34.1487 25.1986 34.1487C25.3831 34.1487 25.5342 34.2761 25.5342 34.4351C25.5342 34.5932 25.3831 34.7206 25.1995 34.7214ZM24.9992 33.4029C24.8385 33.4969 24.6435 33.4609 24.5644 33.3239C24.4854 33.1869 24.5512 33.0006 24.7102 32.9075C24.871 32.8153 25.0651 32.8513 25.1442 32.9883C25.2232 33.1263 25.1582 33.3107 24.9992 33.4029ZM24.1647 32.3638C24.0725 32.5237 23.8872 32.5895 23.751 32.5105C23.6131 32.4314 23.5771 32.2382 23.6693 32.0774C23.7615 31.9176 23.9469 31.8517 24.0857 31.9307C24.221 32.0098 24.2579 32.203 24.1647 32.3638ZM22.9236 31.8789C22.9236 32.0643 22.7962 32.2136 22.6381 32.2136C22.48 32.2136 22.3517 32.0643 22.3517 31.8789C22.3517 31.6936 22.4791 31.5442 22.6372 31.5442C22.7953 31.5442 22.9236 31.6936 22.9236 31.8789ZM21.526 32.5131C21.389 32.5913 21.2036 32.5263 21.1114 32.3664C21.0183 32.2066 21.0543 32.0124 21.1913 31.9334C21.3292 31.8543 21.5146 31.9193 21.6068 32.0801C21.6999 32.2391 21.6639 32.4332 21.526 32.5131ZM22.6381 32.355C23.7888 32.3541 24.7208 33.2852 24.7217 34.4351C24.7234 35.5858 23.7923 36.5186 22.6416 36.5195C21.4918 36.5204 20.5589 35.5884 20.558 34.4386C20.5571 33.2887 21.4882 32.3559 22.6381 32.355ZM20.7144 33.3274C20.6353 33.4644 20.4403 33.4996 20.2796 33.4073C20.1206 33.316 20.0547 33.1298 20.1329 32.9936C20.2119 32.8557 20.4061 32.8197 20.5668 32.9119C20.7258 33.0041 20.7925 33.1895 20.7144 33.3274ZM19.6111 34.4403C19.6128 36.1128 20.97 37.4682 22.6433 37.4656C24.3158 37.4656 25.6703 36.1084 25.6694 34.4351C25.6677 32.7608 24.3097 31.4063 22.6372 31.4072C20.9647 31.409 19.6093 32.767 19.6111 34.4403Z" fill="#DAD1D1"/>
</svg>
