<svg width="152" height="156" viewBox="0 0 152 156" fill="none" xmlns="http://www.w3.org/2000/svg">
<path d="M59.626 140.028L150.937 106.854C151.299 106.724 151.546 106.383 151.564 105.999L151.731 102.261C151.749 101.917 151.575 101.591 151.285 101.409L108.671 74.6992C107.811 74.159 106.758 74.0256 105.79 74.333L10.7508 104.407C10.3611 104.531 10.0929 104.89 10.0835 105.296L9.62234 125.024C9.61436 125.361 9.78656 125.68 10.0744 125.857L58.2514 155.722C58.5001 155.874 58.8053 155.906 59.0804 155.809L150.219 122.845C150.581 122.714 150.832 122.374 150.85 121.989L151.035 117.799C151.049 117.505 150.926 117.222 150.705 117.034L150.114 116.523C149.432 115.939 148.395 116.526 148.548 117.411C148.624 117.868 148.366 118.314 147.931 118.473L60.0792 150.389C59.4466 150.617 58.781 150.139 58.797 149.468L58.9971 140.906C59.0061 140.51 59.2559 140.162 59.626 140.028Z" fill="#85313E"/>
<path d="M9.93409 125.771L57.6532 155.349C58.0919 155.62 58.6603 155.316 58.6723 154.798L59.1258 135.392C59.1312 135.153 59.0112 134.932 58.81 134.808L11.0909 105.231C10.6522 104.959 10.0838 105.263 10.0718 105.782L9.61834 125.187C9.6129 125.426 9.7329 125.648 9.93409 125.771Z" fill="#7D1638"/>
<path d="M150.467 102.167L59.4397 134.898C59.2479 134.967 59.0351 134.945 58.8622 134.837L11.3356 105.378C10.8505 105.078 10.9419 104.349 11.4857 104.175L105.918 74.2927C106.805 74.0103 107.771 74.1331 108.559 74.6262L150.594 100.974C151.065 101.271 150.989 101.978 150.467 102.167Z" fill="#9A323D"/>
<path d="M150.821 102.04L59.5657 134.855C59.3061 134.946 59.131 135.189 59.1245 135.464L59.0353 139.274C59.0245 139.745 59.4892 140.079 59.9308 139.916L151.119 106.789C151.372 106.695 151.546 106.459 151.557 106.191L151.713 102.7C151.735 102.225 151.267 101.881 150.821 102.04Z" fill="#85313E"/>
<path d="M59.0126 140.25L58.7646 150.868L148.697 118.27C148.374 117.128 148.07 115.599 148.055 113.782C148.034 111.1 148.653 108.943 149.176 107.572C119.12 118.466 89.0667 129.36 59.0126 140.25Z" fill="#FBC58D"/>
<path d="M59.0126 140.25L13.839 113.554C13.5338 114.768 13.2575 116.327 13.2209 118.158C13.1767 120.362 13.4957 122.218 13.839 123.581C28.8142 132.677 43.7894 141.772 58.7646 150.868L59.0126 140.25Z" fill="#F7AE84"/>
<path d="M148.095 114.786L148.588 117.65C148.642 117.966 148.461 118.281 148.156 118.39L59.1931 150.712C58.9346 150.806 58.7602 151.049 58.7537 151.324L58.6682 154.99C58.6569 155.461 59.1213 155.794 59.5625 155.635L150.4 122.78C150.654 122.686 150.828 122.45 150.839 122.182L151.042 117.661C151.053 117.455 150.966 117.259 150.81 117.125L148.095 114.786Z" fill="#85313E"/>
<path d="M149.176 107.572L140.708 115.616L58.9443 144.737L59.0132 140.249L149.176 107.572Z" fill="#F7AE84"/>
<path d="M79.0696 139.082L129.722 96.7761C130.128 96.4353 130.371 95.9387 130.391 95.4131L130.454 93.6657C130.481 92.9407 130.084 92.2664 129.436 91.9365C128.995 91.7118 128.554 91.487 128.113 91.2622C128.075 91.6175 128.06 92.1178 128.162 92.6942C128.265 93.2778 128.45 93.7418 128.608 94.0645C111.869 108.126 95.1302 122.189 78.391 136.254C78.3555 137.066 78.3196 137.878 78.2837 138.694C78.2656 139.107 78.7502 139.346 79.0696 139.082Z" fill="#009E93"/>
<path d="M78.7231 128.764L78.3936 136.254L128.61 94.064C128.365 93.2664 128.118 92.1535 128.102 90.8195C128.08 89.0286 128.48 87.5931 128.815 86.6832C112.118 100.709 95.4202 114.738 78.7231 128.764Z" fill="#FBC58D"/>
<path d="M130.912 81.1476L79.2826 124.363C79.0394 124.566 78.8929 124.863 78.8791 125.179L78.7454 128.217C78.7363 128.427 78.981 128.547 79.1423 128.412L129.792 85.8603C130.415 85.3347 130.787 84.5734 130.816 83.7613L130.912 81.1476Z" fill="#009E93"/>
<path d="M79.2124 124.425C80.0803 124.096 81.1123 123.555 81.2599 122.711C81.7707 119.774 71.2149 115.765 67.1787 114.05C58.8926 110.527 47.5292 103.668 34.8179 88.9315L16.7639 103.352C16.4909 103.787 16.1023 104.465 15.7557 105.346C14.9893 107.293 15.2039 108.257 14.9727 112.354C14.7845 115.671 14.5503 116.686 15.2511 118.161C15.2511 118.161 15.3972 119.542 16.4554 119.883C36.6899 126.398 56.9242 132.916 77.1584 139.43C77.3451 139.492 77.8932 139.644 78.5084 139.416C78.8394 139.292 79.0688 139.104 79.2033 138.97C78.9014 138.781 78.5998 138.593 78.2981 138.404C78.3297 137.686 78.3608 136.969 78.3924 136.254C58.9814 130.11 39.5701 123.969 20.1592 117.824L20.3201 109.58C39.6887 115.943 59.0572 122.305 78.4257 128.667C78.4776 128.685 78.6037 128.725 78.7484 128.689C78.9235 128.645 79.0395 128.507 79.1069 128.41C79.1421 127.083 79.1769 125.752 79.2124 124.425Z" fill="#009A92"/>
<path d="M62.9742 66.4456L34.8193 88.9321C41.1521 98.0095 47.4842 107.087 53.8167 116.164L76.6744 123.6C78.2543 124.111 79.9874 123.777 81.2613 122.711L130.914 81.1489L62.9742 66.4456Z" fill="#1EA896"/>
<path d="M20.3195 109.58C19.941 110.555 19.4571 112.172 19.5053 114.205C19.5412 115.721 19.8609 116.964 20.1585 117.823C39.5695 123.968 58.9808 130.109 78.3917 136.254L78.7213 128.764L20.3195 109.58Z" fill="#F7AE84"/>
<path d="M1.30374 79.9487C1.3563 79.898 1.41032 79.8544 1.46216 79.8182C1.64016 79.7239 1.8178 79.6261 1.99579 79.5318C1.99543 79.8146 1.99469 80.0973 1.99397 80.3801C21.5854 88.9608 41.1773 97.5416 60.7688 106.126C60.6553 110.451 60.5418 114.776 60.4284 119.1L61.4369 119.72C61.277 119.822 60.9689 119.985 60.5466 120.036C60.034 120.09 59.6352 119.942 59.4579 119.862C40.3624 111.433 21.2672 103.005 2.17197 94.5726C1.23559 94.1593 0.579439 93.2966 0.425732 92.2851C0.200971 90.8061 -0.184381 89.6243 0.101644 86.8691C0.275652 85.1943 0.540642 83.0845 0.961523 80.6375C0.988712 80.478 1.06448 80.188 1.30374 79.9487Z" fill="#E94E17"/>
<path d="M130.447 68.3645L128.837 67.5786C128.98 68.1771 129.122 68.7753 129.265 69.3738C106.433 81.6225 83.6005 93.8719 60.7685 106.125C60.7348 107.412 60.7011 108.702 60.667 109.993L130.22 72.5647C130.592 72.3642 130.824 71.9752 130.823 71.5521L130.814 68.9507C130.814 68.701 130.671 68.4737 130.447 68.3645Z" fill="#F1650E"/>
<path d="M129.179 73.1499C106.498 85.346 83.8171 97.5447 61.1363 109.743C60.9807 109.762 60.8249 109.78 60.669 109.798C60.6106 112.082 60.5519 114.362 60.4932 116.642L129.2 79.6908C128.926 78.9875 128.571 77.813 128.582 76.3266C128.592 74.9382 128.917 73.8369 129.179 73.1499Z" fill="#FBC58D"/>
<path d="M60.4915 116.642L60.427 119.096C60.4132 119.621 60.9722 119.966 61.4355 119.719L130.2 82.8261C130.605 82.6085 130.856 82.1844 130.855 81.7276L130.848 79.5671C130.841 79.4619 130.821 79.3387 130.778 79.2082C130.621 78.7333 130.258 78.4686 130.096 78.3671C129.617 78.1097 129.139 77.8523 128.66 77.595C128.705 77.9937 128.787 78.4505 128.935 78.9471C129.015 79.2154 129.105 79.4655 129.198 79.6903C106.296 92.0086 83.3939 104.323 60.4915 116.642Z" fill="#F1650E"/>
<path d="M4.83976 91.7118C23.3901 100.021 41.9408 108.33 60.4918 116.642C60.5502 114.362 60.6086 112.082 60.6673 109.798C60.6111 109.809 60.5469 109.816 60.4766 109.816C60.2656 109.812 60.0971 109.751 59.9901 109.696C41.7211 101.688 23.4521 93.6767 5.18307 85.6687C4.92641 86.4372 4.6556 87.5139 4.59941 88.8262C4.54975 89.9862 4.68315 90.9723 4.83976 91.7118Z" fill="#F7AE84"/>
<path d="M1.96508 80.3659L60.77 106.126L129.266 69.3748C129.912 69.0286 129.895 68.0954 129.236 67.7735L73.9192 40.7719L1.93244 79.5647C1.60545 79.7424 1.62504 80.2173 1.96508 80.3659Z" fill="#EE7213"/>
<path d="M128.581 76.3259L118.84 83.0107L60.5947 112.683L60.6687 109.797L128.311 73.6158L128.581 76.3259Z" fill="#F7AE84"/>
<path d="M2.63748 70.8746C17.4274 81.5184 32.2174 92.1583 47.0077 102.802C47.1835 102.892 47.471 103.012 47.8447 103.056C48.3048 103.103 48.6738 103.005 48.875 102.936C48.5194 102.08 48.1638 101.225 47.8081 100.369C47.9067 95.9466 48.0057 91.5275 48.1043 87.1085C33.0363 76.4577 17.9683 65.8113 2.9003 55.1631C2.95359 54.946 3.0069 54.7292 3.06055 54.5124C3.004 54.5204 2.62987 54.578 2.41526 54.9184C2.27098 55.1465 2.2775 55.3763 2.28402 55.4608C1.76599 57.7682 1.24506 60.7201 1.06416 63.8936C0.979694 65.3795 0.971718 66.8797 1.55356 68.6067C1.55356 68.6067 1.58727 70.1187 2.63748 70.8746Z" fill="#0091B4"/>
<path d="M141.885 54.4829L48.1035 87.1075L2.95638 55.2024C2.69428 55.0168 2.75483 54.6119 3.0597 54.5115L101.015 22.2642L142.165 52.6478C142.842 53.1488 142.683 54.2059 141.885 54.4829Z" fill="#58ABBB"/>
<path d="M48.8742 102.935L141.918 70.7639C142.766 70.4699 143.346 69.6807 143.368 68.7828L143.401 67.6412C143.422 66.8433 142.998 66.0998 142.306 65.7072L139.71 64.239C139.732 64.6975 139.797 65.2449 139.939 65.8507C140.087 66.4898 140.283 67.0336 140.475 67.4708C109.587 78.4366 78.697 89.4027 47.8073 100.369C47.7943 100.956 47.7808 101.543 47.7678 102.131C47.7547 102.711 48.325 103.128 48.8742 102.935Z" fill="#3BA3BC"/>
<path d="M143.695 55.1591C143.703 54.9543 143.684 54.7212 143.626 54.4722C143.362 53.3944 142.452 52.8162 142.166 52.6491C141.995 53.2878 141.825 53.9266 141.651 54.5657C110.47 65.4129 79.2871 76.2587 48.1045 87.1088C48.0718 88.577 48.0388 90.0488 48.0059 91.517C48.0443 91.5279 48.0867 91.5351 48.1324 91.5387C48.2988 91.5568 48.4394 91.5279 48.5366 91.4952C79.9341 80.3225 111.332 69.1519 142.731 57.9806C142.847 57.9382 143.17 57.8066 143.416 57.4673C143.583 57.236 143.684 56.9547 143.692 56.656C143.692 56.1571 143.692 55.6583 143.695 55.1591Z" fill="#3BA3BC"/>
<path d="M47.9998 91.6829C48.0012 91.6285 48.0023 91.5741 48.0034 91.5161C47.8696 91.4762 47.7355 91.4327 47.6014 91.3928C33.4161 81.0829 19.2308 70.7704 5.04592 60.4586C4.6863 61.3776 4.19655 62.9944 4.32451 65.0259C4.40971 66.3825 4.74285 67.486 5.04592 68.2545C19.0691 78.6794 33.0398 89.167 46.9575 99.7235C47.0391 99.7851 47.7243 100.307 47.8058 100.369C47.8707 97.4723 47.9349 94.5794 47.9998 91.6829Z" fill="#F7AE84"/>
<path d="M48.0016 91.6829L47.8076 100.369L140.476 67.4708C140.131 66.6203 139.678 65.2058 139.674 63.412C139.671 61.2851 140.294 59.5773 140.708 58.6993C109.805 69.6694 78.9032 80.7131 48.0016 91.6829Z" fill="#FBC58D"/>
<path d="M140.707 58.6991L132.395 66.3289L47.9043 96.0256L48.0011 91.6826L140.707 58.6991Z" fill="#F7AE84"/>
<path d="M146.059 30.1926C117.827 44.802 89.5931 59.4129 61.3596 74.0234C59.7228 73.5927 58.8111 73.5507 58.6247 73.898C58.5142 74.1042 58.6592 74.4486 59.0598 74.9272C59.3501 76.2068 59.6409 77.4865 59.9309 78.7662L146.415 33.6764C146.882 33.4299 147.172 32.9441 147.165 32.4185L147.14 30.8379C147.147 30.7473 147.143 30.6639 147.136 30.5877C147.067 29.8663 146.48 29.3878 146.237 29.2138C146.179 29.5401 146.121 29.8664 146.059 30.1926Z" fill="#9F564E"/>
<path d="M2.18243 44.6072C2.23137 44.5855 2.27306 44.5673 2.29989 44.5564C2.32527 44.6906 2.35028 44.8211 2.37565 44.9516C21.2541 54.7149 40.1332 64.4767 59.012 74.2393C59.1515 74.3118 59.4771 74.5039 59.7138 74.8991C59.8795 75.171 59.9697 75.4936 59.9654 75.8271L59.7925 90.3713C60.1851 90.7229 60.4359 91.4987 60.3768 91.6075C60.3004 91.7525 59.8458 91.6909 59.0134 91.4335L1.3037 61.0912C0.822637 58.2208 0.544947 55.7263 0.377102 53.7281C0.377102 53.7277 0.105937 50.4981 0.972351 46.5829C1.11808 45.9268 1.41172 44.9734 2.18243 44.6072Z" fill="#91514E"/>
<path d="M90.4127 0.321274L146.094 29.1123C146.526 29.3371 146.526 29.9497 146.098 30.1745L61.572 73.9125C60.5722 74.4305 59.3831 74.4305 58.3829 73.9128L2.26755 44.8963C2.13632 44.8274 2.13595 44.6389 2.26718 44.5736L87.7816 0.321274C88.6067 -0.106499 89.5873 -0.106499 90.4127 0.321274Z" fill="#A06553"/>
<path d="M59.818 88.1299C59.7745 89.1885 59.731 90.2434 59.6875 91.2983C59.7118 91.3418 59.8147 91.5194 60.0351 91.5919C60.1863 91.6427 60.3179 91.621 60.3756 91.6065L146.34 46.5348C146.971 46.2085 147.362 45.556 147.352 44.8455L147.337 43.9428C147.323 43.0836 146.775 42.3223 145.963 42.0432C145.572 41.9091 145.184 41.7713 144.792 41.6372C144.553 41.5393 144.314 41.4414 144.071 41.3436C144.154 41.7568 144.27 42.2172 144.426 42.703C144.549 43.0909 144.687 43.4462 144.825 43.7688L59.818 88.1299Z" fill="#9F564E"/>
<path d="M144.684 34.5361C116.686 49.1491 88.6863 63.7603 60.6866 78.3715C60.5394 78.415 60.3697 78.4549 60.1802 78.4767C60.0834 78.4912 59.9916 78.4984 59.905 78.502C59.9133 78.589 59.9217 78.6797 59.9293 78.7667C59.8923 81.8879 59.8553 85.0092 59.8184 88.1305L144.825 43.7694C144.426 42.8341 143.868 41.2208 143.843 39.1436C143.814 37.0882 144.314 35.475 144.684 34.5361Z" fill="#FBC58D"/>
<path d="M59.8184 88.1305L5.18428 59.2912C4.87034 58.2555 4.53754 56.7398 4.56618 54.895C4.59989 52.7485 5.10923 51.0356 5.52757 49.9503C23.2945 59.3612 41.0607 68.7725 58.8269 78.183C58.9908 78.2773 59.2232 78.386 59.5164 78.4477C59.6705 78.4803 59.8111 78.4948 59.933 78.4984C59.8945 81.7103 59.8561 84.9222 59.8184 88.1305Z" fill="#F7AE84"/>
<path d="M64.4014 66.1866L64.1509 66.0546C62.7726 65.3263 61.2551 64.9613 59.7372 64.9613C58.2603 64.9613 56.7831 65.3067 55.432 65.9984L55.1804 66.1275L20.5942 47.8545L21.5008 47.3723C22.6275 46.7742 23.2996 45.6576 23.2978 44.3816C23.2967 43.1055 22.6224 41.989 21.4947 41.3908L20.5869 40.9123L84.8241 6.79948L85.0793 6.93727C86.4721 7.67318 88.0005 8.04295 89.5281 8.04295C91.0601 8.04295 92.5914 7.67317 93.9867 6.93001L94.2415 6.79588L129.487 25.4582L128.557 25.9331C127.326 26.5675 126.584 27.7675 126.575 29.1523C126.565 30.5371 127.29 31.7515 128.513 32.3968L129.436 32.8862L64.4014 66.1866ZM59.7376 63.8741C61.3374 63.8741 62.9361 64.2373 64.4046 64.9631L127.186 32.8173C126.099 31.9255 125.477 30.6096 125.487 29.145C125.497 27.6841 126.136 26.3754 127.237 25.4981L94.2379 8.02482C92.7534 8.76073 91.141 9.13049 89.5285 9.13049C87.92 9.13049 86.3115 8.76434 84.8292 8.02843L22.8041 40.9667C23.8068 41.8004 24.3839 43.0222 24.3857 44.378C24.3872 45.7374 23.8119 46.9591 22.8117 47.7965L55.1924 64.9037C56.6287 64.217 58.1835 63.8741 59.7376 63.8741Z" fill="#BC8970"/>
<path d="M133.334 30.7404C131.803 30.7404 130.562 29.9102 130.562 28.8843C130.562 27.862 131.803 27.0318 133.334 27.0318C134.864 27.0318 136.104 27.862 136.104 28.8843C136.104 29.9102 134.864 30.7404 133.334 30.7404Z" fill="#BC8970"/>
<path d="M89.7153 5.98769C88.5621 5.98769 87.6279 5.44028 87.6279 4.766C87.6279 4.09534 88.5621 3.54796 89.7153 3.54796C90.8677 3.54796 91.8023 4.09534 91.8023 4.766C91.8023 5.44028 90.8677 5.98769 89.7153 5.98769Z" fill="#BC8970"/>
<path d="M18.9082 46.1685C17.5096 46.1685 16.376 45.4471 16.376 44.5553C16.376 43.6671 17.5096 42.9421 18.9082 42.9421C20.3064 42.9421 21.4396 43.6671 21.4396 44.5553C21.4396 45.4471 20.3064 46.1685 18.9082 46.1685Z" fill="#BC8970"/>
<path d="M59.9635 69.556C58.5649 69.556 57.4316 68.8335 57.4316 67.9424C57.4316 67.0514 58.5649 66.3292 59.9635 66.3292C61.3617 66.3292 62.4949 67.0514 62.4949 67.9424C62.4949 68.8335 61.3617 69.556 59.9635 69.556Z" fill="#BC8970"/>
<path d="M5.16934 46.3982C4.88585 46.2532 4.60381 46.1082 4.32068 45.9596H4.32031L5.16934 46.3982Z" fill="#E2D0CB"/>
<path d="M4.68102 46.6516L4.32031 45.9592C4.60344 46.1078 4.88548 46.2528 5.16897 46.3978L4.68102 46.6516Z" fill="#81423E"/>
<path d="M5.16875 46.3982L4.31972 45.9596L4.17871 45.6877L90.797 0.558018L91.2994 1.5223L5.16875 46.3982Z" fill="#8E5342"/>
<path d="M59.9336 78.4986L144.685 34.5362C116.687 49.1493 88.687 63.7605 60.6873 78.3717C60.5401 78.4152 60.3704 78.4551 60.1808 78.4769C60.0946 78.4877 60.0119 78.495 59.9336 78.4986Z" fill="#9E4C3C"/>
<path d="M59.8799 83.0111L59.9335 78.4977C60.0118 78.4941 60.0945 78.4869 60.1808 78.476C60.3704 78.4542 60.54 78.4144 60.6872 78.3709C88.6869 63.7596 116.687 49.1484 144.684 34.5354C140.149 38.2947 135.614 42.054 131.077 45.8096C107.345 58.211 83.6124 70.6105 59.8799 83.0111Z" fill="#F9AE6D"/>
<path d="M60.7692 89.8123C60.5738 89.8123 60.385 89.7072 60.2875 89.5223C60.1475 89.2577 60.249 88.9278 60.5148 88.7864L145.51 43.9069C145.59 43.867 145.677 43.8453 145.764 43.8453C145.96 43.8453 146.148 43.9504 146.246 44.1353C146.384 44.3999 146.283 44.7298 146.018 44.8712L61.0223 89.7507C60.9414 89.7906 60.8548 89.8123 60.7692 89.8123Z" fill="#B27062"/>
<path d="M119.48 28.8845L91.0508 13.503L94.4788 12.0928C103.851 17.2333 113.222 22.3738 122.594 27.5106C121.557 27.971 120.519 28.4278 119.48 28.8845Z" fill="#BC8970"/>
<path d="M67.6236 48.0253C60.5491 48.0253 55.1513 45.7885 54.1424 41.8734C52.6916 36.2399 60.8663 29.265 72.4016 26.2924C75.9151 25.3897 79.3351 24.9584 82.4335 24.9584C89.508 24.9584 94.9059 27.1951 95.9148 31.1139C97.3656 36.7474 89.1908 43.7222 77.6555 46.6912C74.1424 47.5975 70.7221 48.0253 67.6236 48.0253Z" fill="#BC8970"/>
<path d="M54.9137 79.531C50.8481 77.5263 46.8046 75.4817 42.7832 73.3947C38.7571 71.3175 34.7506 69.2029 30.7484 67.0804C26.7527 64.9455 22.7611 62.8034 18.789 60.6239C14.8122 58.4539 10.8571 56.2422 6.92383 53.9903C10.9887 55.995 15.0322 58.0403 19.054 60.1266C23.0801 62.2038 27.0863 64.3184 31.0888 66.4405C35.0852 68.5747 39.0769 70.7164 43.0489 72.8955C47.0257 75.0648 50.9808 77.2762 54.9137 79.531Z" fill="#F59A66"/>
<path d="M59.8467 85.7887C59.8471 85.7808 59.8471 85.7769 59.8471 85.769C59.8475 85.769 59.8467 85.769 59.8471 85.769C59.8471 85.7769 59.8471 85.7808 59.8467 85.7887Z" fill="#3A9092"/>
<path d="M60.1102 85.9191C60.0225 85.8756 59.9348 85.8321 59.8467 85.7886C59.847 85.7814 59.8471 85.7778 59.8471 85.7705C59.9348 85.8176 60.0225 85.8684 60.1102 85.9191Z" fill="#F9AE6D"/>
<path d="M59.8461 85.7887C55.8697 83.8275 51.9139 81.8264 47.9795 79.7854C43.9531 77.7082 39.9469 75.5911 35.9447 73.47C31.9487 71.3355 27.9574 69.1934 23.9853 67.014C20.0085 64.8439 16.0534 62.6322 12.1201 60.3803C16.185 62.385 20.2285 64.4303 24.2499 66.5166C28.2764 68.5938 32.2826 70.7087 36.2851 72.8305C40.2815 74.9639 44.2732 77.1064 48.2453 79.2851C52.1332 81.4059 56.0002 83.5701 59.8465 85.7706C59.8465 85.7778 59.8465 85.7814 59.8461 85.7887Z" fill="#F59A66"/>
<path d="M42.6415 91.2626C39.5804 89.1491 36.5476 86.9994 33.5427 84.8098C30.5316 82.6275 27.5459 80.4125 24.5657 78.1939C21.5938 75.9608 18.6262 73.7201 15.6844 71.4467C12.7368 69.1814 9.81671 66.8794 6.92383 64.5404C9.98419 66.655 13.017 68.8065 16.0223 70.9954C19.0333 73.1759 22.019 75.3916 25 77.6102C27.9726 79.8433 30.9398 82.0837 33.8813 84.3567C36.8296 86.6224 39.7493 88.9244 42.6415 91.2626Z" fill="#F59A66"/>
<path d="M57.433 111.47C55.301 110.592 53.189 109.672 51.0665 108.776L44.7318 106.014C40.5125 104.165 36.3186 102.262 32.1116 100.384C27.9285 98.4554 23.7309 96.5558 19.5605 94.5982L13.3089 91.6546C11.2357 90.6504 9.15304 89.6644 7.08887 88.6384C9.22046 89.5157 11.3325 90.4366 13.455 91.332L19.7896 94.0943C24.0097 95.9431 28.2026 97.85 32.4106 99.7242C36.5941 101.653 40.7906 103.552 44.9621 105.506L51.2133 108.454C53.2862 109.458 55.3692 110.444 57.433 111.47Z" fill="#F59A66"/>
<path d="M75.0285 132.209C72.7817 131.51 70.55 130.766 68.3097 130.045L61.6165 127.808C57.1572 126.311 52.7182 124.752 48.2687 123.226C43.8387 121.642 39.3968 120.09 34.9766 118.481L28.3498 116.052C26.1497 115.218 23.9413 114.41 21.748 113.554C23.9949 114.254 26.2269 115.001 28.4666 115.718L35.1601 117.955C39.6198 119.456 44.058 121.015 48.5083 122.541C52.939 124.121 57.3798 125.673 61.8007 127.283L68.4271 129.711C70.6276 130.545 72.836 131.357 75.0285 132.209Z" fill="#F59A66"/>
<path d="M56.1962 146.934C52.6696 144.889 49.1681 142.805 45.6916 140.681C42.2092 138.567 38.7497 136.414 35.2946 134.257C31.847 132.085 28.4039 129.907 24.9828 127.692C21.557 125.487 18.1555 123.243 14.7783 120.96C18.3045 123.008 21.8057 125.092 25.2826 127.217C28.7646 129.33 32.2244 131.483 35.6796 133.64C39.1278 135.812 42.5714 137.991 45.9921 140.202C49.4182 142.406 52.8197 144.65 56.1962 146.934Z" fill="#F59A66"/>
</svg>
